<svg width="500" height="500" viewBox="0 0 500 500" fill="none" xmlns="http://www.w3.org/2000/svg">
<path d="M83.9999 400L73.3699 392.68C73.3699 392.68 67.2299 401.61 57.8499 395.39C56.0206 394.224 54.5997 392.517 53.7844 390.506C52.9691 388.496 52.7998 386.281 53.2999 384.17C53.6964 382.39 54.5083 380.73 55.6693 379.324C56.8302 377.918 58.3073 376.806 59.9799 376.08C63.8199 374.35 69.6299 374.37 75.9299 380.56L92.4099 356.56L81.8999 349.33L72.2499 363.33C72.2499 363.33 54.8899 357 43.7099 373.24C33.0199 388.78 44.4699 401.98 50.4399 406.08C54.9999 409.29 71.2499 418.88 83.9999 400Z" fill="#EBEBEB"/>
<path d="M85.1209 344.344L95.7812 351.679L102.634 341.719L91.974 334.384L85.1209 344.344Z" fill="#EBEBEB"/>
<path d="M129.259 429.39L134.899 427.9C134.731 427.258 134.693 426.59 134.787 425.933C134.88 425.277 135.103 424.645 135.443 424.076C135.782 423.506 136.232 423.01 136.765 422.616C137.298 422.222 137.905 421.937 138.549 421.78C139.489 421.494 140.494 421.509 141.424 421.823C142.355 422.137 143.164 422.734 143.739 423.53C144.233 424.189 144.564 424.956 144.705 425.768C144.845 426.579 144.792 427.413 144.549 428.2C144.009 430.03 142.289 432.02 138.309 432.35L141.659 445.08L147.239 443.61L145.239 436.15C147.349 434.871 148.98 432.935 149.884 430.639C150.787 428.343 150.912 425.814 150.239 423.44C148.059 415.19 140.149 415.22 136.989 416.06C134.619 416.7 126.529 419.46 129.259 429.39Z" fill="#EBEBEB"/>
<path d="M148.027 446.194L142.361 447.689L143.757 452.978L149.423 451.483L148.027 446.194Z" fill="#EBEBEB"/>
<path d="M223 73.07C225.853 71.3317 228.927 69.9862 232.14 69.07L234.02 60.07L249.31 59.8L251.51 68.8001C254.753 69.5945 257.875 70.8222 260.79 72.45L268.52 67.38L279.52 78L274.73 85.9001C276.462 88.7597 277.807 91.8365 278.73 95.0501L287.78 96.93L288.04 112.22L279.04 114.42C278.241 117.662 277.014 120.783 275.39 123.7L280.45 131.43L269.83 142.43L261.93 137.64C259.073 139.378 255.996 140.724 252.78 141.64L250.9 150.7L235.61 150.96L233.41 141.96C230.165 141.17 227.043 139.942 224.13 138.31L216.4 143.38L205.4 132.76L210.19 124.86C208.452 122.004 207.106 118.926 206.19 115.71L197.19 113.83L196.92 98.5401L205.92 96.34C206.7 93.0777 207.917 89.9358 209.54 87L204.47 79.27L215.09 68.27L223 73.07ZM231.15 93.4401C228.9 95.7768 227.394 98.7281 226.822 101.921C226.25 105.113 226.637 108.404 227.935 111.377C229.233 114.349 231.383 116.87 234.114 118.621C236.845 120.371 240.033 121.273 243.276 121.211C246.519 121.149 249.671 120.128 252.333 118.275C254.995 116.422 257.048 113.821 258.233 110.802C259.417 107.782 259.679 104.479 258.986 101.31C258.293 98.1418 256.676 95.2498 254.34 93C251.205 89.9855 247.002 88.3386 242.654 88.4211C238.306 88.5036 234.168 90.3088 231.15 93.4401Z" fill="#F5F5F5"/>
<path d="M159 41.19C160.648 40.2003 162.42 39.4336 164.27 38.91L165.35 33.69L174.16 33.54L175.43 38.71C177.296 39.1664 179.092 39.8728 180.77 40.81L185.22 37.89L191.52 44L188.76 48.55C189.755 50.1966 190.525 51.969 191.05 53.82L196.26 54.9L196.41 63.71L191.24 65C190.785 66.867 190.079 68.6635 189.14 70.34L192.06 74.79L185.94 81.13L181.39 78.37C179.743 79.3653 177.971 80.1355 176.12 80.66L175 85.86L166.19 86.02L165 80.85C163.134 80.3857 161.339 79.6762 159.66 78.74L155.21 81.66L148.87 75.54L151.59 71C150.593 69.3579 149.822 67.5886 149.3 65.74L144.09 64.65L143.93 55.84L149.11 54.58C149.564 52.7099 150.271 50.9101 151.21 49.23L148.29 44.78L154.41 38.45L159 41.19ZM163.69 52.93C162.385 54.2724 161.508 55.9722 161.17 57.8137C160.833 59.6552 161.05 61.5555 161.794 63.2734C162.538 64.9913 163.776 66.4494 165.35 67.4629C166.924 68.4763 168.764 68.9993 170.636 68.9655C172.508 68.9318 174.328 68.3428 175.864 67.2733C177.401 66.2038 178.585 64.7019 179.267 62.9583C179.949 61.2147 180.097 59.3079 179.693 57.4797C179.29 55.6516 178.352 53.9845 177 52.69C175.196 50.9537 172.778 50.0037 170.275 50.0487C167.772 50.0937 165.389 51.13 163.65 52.93H163.69Z" fill="#EBEBEB"/>
<path d="M440.069 204.71C441.713 203.717 443.482 202.947 445.329 202.42L446.419 197.21L455.219 197.06L456.489 202.23C458.359 202.685 460.159 203.391 461.839 204.33L466.289 201.41L472.619 207.53L469.859 212.08C470.854 213.727 471.624 215.499 472.149 217.35L477.369 218.43L477.519 227.24L472.349 228.51C471.884 230.374 471.178 232.169 470.249 233.85L473.159 238.3L467.049 244.64L462.499 241.88C460.853 242.875 459.08 243.646 457.229 244.17L456.139 249.38L447.339 249.54L446.069 244.36C444.202 243.905 442.406 243.199 440.729 242.26L436.269 245.18L429.939 239.06L432.699 234.51C431.702 232.864 430.932 231.092 430.409 229.24L425.199 228.16L425.039 219.35L430.209 218.08C430.674 216.216 431.38 214.421 432.309 212.74L429.399 208.29L435.509 201.95L440.069 204.71ZM444.759 216.44C443.46 217.784 442.589 219.483 442.256 221.322C441.922 223.162 442.142 225.058 442.887 226.773C443.631 228.487 444.868 229.942 446.44 230.954C448.011 231.965 449.848 232.488 451.717 232.456C453.586 232.424 455.403 231.838 456.939 230.773C458.475 229.708 459.661 228.211 460.346 226.472C461.031 224.733 461.186 222.83 460.789 221.003C460.393 219.177 459.464 217.509 458.119 216.21C456.315 214.472 453.896 213.52 451.392 213.563C448.887 213.606 446.502 214.641 444.759 216.44Z" fill="#EBEBEB"/>
<path d="M463.781 465.31C463.781 465.46 368.951 465.57 252.011 465.57C135.071 465.57 40.2207 465.46 40.2207 465.31C40.2207 465.16 135.021 465.05 252.011 465.05C369.001 465.05 463.781 465.17 463.781 465.31Z" fill="#263238"/>
<path d="M417.66 464.58L275.66 464.5C267.458 464.495 259.593 461.232 253.795 455.431C247.997 449.629 244.74 441.762 244.74 433.56L244.81 77.5599C244.829 69.3503 248.103 61.4833 253.915 55.6848C259.726 49.8863 267.601 46.6299 275.81 46.6299L417.81 46.7199C426.013 46.7252 433.877 49.9873 439.675 55.7891C445.473 61.5909 448.73 69.4576 448.73 77.6599L448.66 433.66C448.66 437.727 447.858 441.754 446.299 445.511C444.74 449.268 442.455 452.68 439.576 455.552C436.696 458.424 433.278 460.7 429.517 462.249C425.757 463.798 421.727 464.59 417.66 464.58Z" fill="#455A64"/>
<path d="M417.611 59.2698H390.081C388.266 59.3117 386.542 60.0726 385.287 61.3852C384.033 62.6977 383.351 64.4546 383.391 66.2698V71.2698C383.431 73.0849 382.749 74.8418 381.495 76.1544C380.24 77.467 378.516 78.2278 376.701 78.2698H323.031C321.217 78.2252 319.496 77.4632 318.244 76.1509C316.991 74.8387 316.311 73.0833 316.351 71.2698V66.2698C316.391 64.4546 315.709 62.6977 314.455 61.3852C313.2 60.0726 311.476 59.3117 309.661 59.2698H275.881C270.147 59.2645 264.644 61.5332 260.58 65.5785C256.516 69.6238 254.222 75.1156 254.201 80.8498L254.131 428.37C254.141 434.108 256.428 439.608 260.488 443.663C264.549 447.718 270.052 449.997 275.791 450L417.521 450.08C420.367 450.081 423.185 449.522 425.814 448.434C428.444 447.346 430.834 445.751 432.847 443.74C434.86 441.729 436.457 439.34 437.547 436.712C438.638 434.083 439.2 431.266 439.201 428.42L439.261 80.8998C439.253 75.1621 436.969 69.662 432.91 65.6068C428.851 61.5515 423.348 59.2724 417.611 59.2698Z" fill="white"/>
<path d="M439.251 132.31V80.5398C439.149 74.8665 436.825 69.4599 432.778 65.4824C428.731 61.5048 423.285 59.2741 417.611 59.2698H390.081C389.182 59.2893 388.296 59.4859 387.472 59.8484C386.649 60.2109 385.906 60.7321 385.284 61.3823C384.663 62.0325 384.176 62.7988 383.851 63.6375C383.526 64.4762 383.37 65.3707 383.391 66.2698V71.2698C383.431 73.0849 382.749 74.8418 381.495 76.1544C380.241 77.467 378.516 78.2278 376.701 78.2698H323.031C321.218 78.2252 319.496 77.4632 318.244 76.1509C316.992 74.8387 316.311 73.0833 316.351 71.2698V66.2698C316.391 64.4546 315.709 62.6977 314.455 61.3852C313.201 60.0726 311.476 59.3117 309.661 59.2698H275.881C270.147 59.2645 264.645 61.5332 260.581 65.5785C256.516 69.6238 254.222 75.1156 254.201 80.8498V132.47H439.251V132.31Z" fill="#EBEBEB"/>
<path d="M291.94 202.53C304.328 202.53 314.37 192.51 314.37 180.15C314.37 167.79 304.328 157.77 291.94 157.77C279.552 157.77 269.51 167.79 269.51 180.15C269.51 192.51 279.552 202.53 291.94 202.53Z" fill="#E0E0E0"/>
<path d="M281.461 185.75L287.341 185.25L301.681 187.67L303.371 198.46L303.131 199.72C299.901 201.543 296.271 202.542 292.562 202.627C288.854 202.713 285.182 201.882 281.871 200.21L281.461 185.75Z" fill="#455A64"/>
<path d="M298.609 187.5C300.031 187.292 301.483 187.489 302.799 188.067C304.114 188.645 305.241 189.582 306.049 190.77C307.021 192.127 307.913 193.539 308.719 195C306.379 197.54 304.479 199.47 301.239 200.6L298.609 187.5Z" fill="#455A64"/>
<path d="M281.46 185.75C281.46 185.75 277.58 186.23 276.08 189.54C274.58 192.85 274.23 193.88 274.23 193.88C276.23 196.3 278.79 199.16 281.92 200.23C281.92 200.23 282.63 191.89 282.72 189.54C282.83 187 282.93 185.68 281.46 185.75Z" fill="#455A64"/>
<path d="M285 164.55C285.977 163.298 287.223 162.281 288.646 161.575C290.069 160.869 291.632 160.491 293.22 160.47C294.585 160.47 295.94 160.714 297.22 161.19C298.567 161.509 299.758 162.296 300.58 163.41C301.599 164.72 302.267 166.269 302.52 167.91C302.755 169.589 302.835 171.286 302.76 172.98C302.678 174.686 302.128 176.336 301.17 177.75L296.86 178.49C294.484 178.68 292.093 178.552 289.75 178.11C287.382 177.655 285.289 176.282 283.93 174.29C282.2 171.48 282.92 167.11 285 164.55Z" fill="#263238"/>
<path d="M280.84 177C280.884 176.512 281.038 176.041 281.291 175.622C281.544 175.202 281.889 174.846 282.3 174.58C282.72 174.327 283.21 174.214 283.699 174.257C284.188 174.3 284.65 174.497 285.02 174.82L285.7 175.62C286.225 175.862 286.661 176.262 286.947 176.764C287.234 177.266 287.357 177.845 287.3 178.42C287.225 178.995 286.985 179.537 286.609 179.979C286.233 180.421 285.736 180.744 285.18 180.91C284.624 181.068 284.036 181.08 283.474 180.945C282.912 180.81 282.394 180.533 281.97 180.14C281.554 179.738 281.236 179.246 281.04 178.701C280.844 178.157 280.775 177.575 280.84 177Z" fill="#263238"/>
<path d="M281.691 179.94C281.529 179.687 281.449 179.39 281.461 179.09C281.605 178.362 281.951 177.689 282.461 177.15C282.943 176.583 283.531 176.115 284.191 175.77C284.691 175.5 285.041 175.4 285.031 175.37C284.711 175.393 284.401 175.485 284.121 175.64C283.416 175.953 282.793 176.426 282.301 177.02C282.025 177.321 281.789 177.657 281.601 178.02C281.437 178.329 281.341 178.67 281.321 179.02C281.316 179.26 281.382 179.497 281.511 179.7C281.601 179.9 281.691 180 281.691 179.94Z" fill="#455A64"/>
<path d="M296.82 186.73V182.73C296.82 182.73 300.33 182.34 301.31 177.84C301.77 174.863 301.951 171.85 301.85 168.84C301.85 166.11 299.5 162.39 296.12 162.38L294.62 162.2L288.87 164.48C288.47 164.502 288.093 164.672 287.812 164.957C287.531 165.241 287.366 165.62 287.35 166.02L287.18 185.23L289.81 188.92C290.291 189.572 290.965 190.056 291.736 190.306C292.506 190.555 293.336 190.557 294.108 190.311C294.88 190.065 295.556 189.584 296.04 188.934C296.525 188.285 296.794 187.5 296.81 186.69L296.82 186.73Z" fill="#FFBE9D"/>
<path d="M294.53 176.8C294.561 176.569 294.679 176.358 294.86 176.21C295.024 176.072 295.229 175.991 295.443 175.978C295.657 175.966 295.87 176.022 296.05 176.14C296.233 176.283 296.376 176.472 296.464 176.688C296.552 176.904 296.581 177.139 296.55 177.37C296.449 177.509 296.321 177.625 296.173 177.712C296.025 177.798 295.86 177.852 295.69 177.87H295.53C295.397 177.873 295.265 177.85 295.141 177.802C295.018 177.754 294.905 177.682 294.81 177.59C294.709 177.486 294.631 177.362 294.583 177.226C294.535 177.089 294.516 176.944 294.53 176.8Z" fill="#EB996E"/>
<path d="M299.76 172C299.755 172.152 299.69 172.296 299.579 172.401C299.469 172.505 299.322 172.563 299.17 172.56C299.095 172.561 299.021 172.548 298.951 172.52C298.881 172.493 298.818 172.452 298.764 172.4C298.71 172.348 298.667 172.286 298.637 172.217C298.607 172.149 298.591 172.075 298.59 172C298.598 171.847 298.665 171.703 298.777 171.598C298.888 171.494 299.037 171.437 299.19 171.44C299.264 171.438 299.338 171.452 299.407 171.48C299.476 171.507 299.539 171.548 299.592 171.6C299.645 171.652 299.688 171.715 299.716 171.783C299.745 171.852 299.76 171.925 299.76 172Z" fill="#263238"/>
<path d="M300.721 170.56C300.641 170.63 300.211 170.28 299.591 170.25C298.971 170.22 298.481 170.51 298.421 170.43C298.361 170.35 298.471 170.26 298.681 170.12C298.964 169.951 299.291 169.871 299.621 169.89C299.946 169.903 300.259 170.022 300.511 170.23C300.691 170.39 300.751 170.53 300.721 170.56Z" fill="#263238"/>
<path d="M296.77 175.3C297.098 175.223 297.433 175.183 297.77 175.18C297.93 175.18 298.09 175.18 298.12 175.04C298.143 174.875 298.115 174.708 298.04 174.56L297.63 173.32C297.248 172.262 296.951 171.175 296.74 170.07C297.208 171.094 297.592 172.154 297.89 173.24C298.03 173.67 298.15 174.09 298.28 174.49C298.365 174.689 298.382 174.91 298.33 175.12C298.269 175.227 298.169 175.306 298.05 175.34C297.96 175.349 297.87 175.349 297.78 175.34C297.443 175.372 297.104 175.359 296.77 175.3Z" fill="#263238"/>
<path d="M296.801 182.74C294.654 182.644 292.576 181.951 290.801 180.74C290.801 180.74 292.251 183.97 296.801 183.8V182.74Z" fill="#EB996E"/>
<path d="M294.9 175.64C295.01 175.64 294.97 176.32 295.53 176.83C296.09 177.34 296.81 177.31 296.81 177.4C296.81 177.49 296.64 177.53 296.34 177.52C295.94 177.502 295.559 177.346 295.26 177.08C294.978 176.82 294.806 176.462 294.78 176.08C294.77 175.79 294.86 175.63 294.9 175.64Z" fill="#263238"/>
<path d="M300.591 168.2C300.481 168.35 300.001 168.2 299.441 168.2C298.881 168.2 298.441 168.34 298.291 168.2C298.141 168.06 298.291 167.98 298.511 167.84C298.787 167.667 299.105 167.573 299.431 167.57C299.759 167.561 300.082 167.648 300.361 167.82C300.571 168 300.641 168.13 300.591 168.2Z" fill="#263238"/>
<path d="M292.881 172C292.878 172.153 292.935 172.301 293.04 172.413C293.144 172.525 293.288 172.592 293.441 172.6C293.515 172.607 293.59 172.599 293.662 172.576C293.733 172.554 293.799 172.517 293.856 172.469C293.912 172.42 293.959 172.361 293.992 172.294C294.026 172.227 294.046 172.155 294.051 172.08C294.051 171.929 293.993 171.783 293.889 171.673C293.785 171.563 293.642 171.498 293.491 171.49C293.417 171.482 293.342 171.488 293.271 171.51C293.2 171.531 293.134 171.567 293.077 171.615C293.02 171.662 292.973 171.721 292.939 171.787C292.906 171.853 292.886 171.926 292.881 172Z" fill="#263238"/>
<path d="M292.12 170.34C292.19 170.42 292.64 170.1 293.27 170.11C293.9 170.12 294.35 170.44 294.42 170.37C294.49 170.3 294.42 170.2 294.18 170.05C293.913 169.854 293.591 169.749 293.26 169.75C292.936 169.74 292.617 169.834 292.35 170.02C292.15 170.17 292.08 170.3 292.12 170.34Z" fill="#263238"/>
<path d="M291.761 169C291.881 169.15 292.371 169 292.951 169C293.531 169 294.021 169.12 294.141 169C294.261 168.88 294.141 168.78 293.901 168.64C293.61 168.469 293.278 168.379 292.941 168.379C292.603 168.379 292.272 168.469 291.981 168.64C291.771 168.78 291.701 168.92 291.761 169Z" fill="#263238"/>
<path d="M288.111 173.69C288.111 173.35 287.791 172.53 287.451 172.46C286.571 172.27 284.961 172.26 284.821 174.52C284.631 177.61 287.821 177.16 287.821 177.07C287.821 176.98 288.051 174.85 288.111 173.69Z" fill="#FFBE9D"/>
<path d="M287.001 175.89C287.001 175.89 286.951 175.89 286.851 175.96C286.788 175.987 286.72 176.001 286.651 176.001C286.582 176.001 286.514 175.987 286.451 175.96C286.257 175.821 286.104 175.633 286.007 175.415C285.911 175.197 285.874 174.957 285.901 174.72C285.913 174.455 285.981 174.196 286.101 173.96C286.137 173.866 286.194 173.781 286.269 173.713C286.344 173.645 286.434 173.596 286.531 173.57C286.594 173.556 286.661 173.566 286.718 173.597C286.775 173.628 286.818 173.679 286.841 173.74C286.848 173.79 286.848 173.84 286.841 173.89C286.841 173.89 286.911 173.89 286.891 173.72C286.878 173.642 286.84 173.572 286.781 173.52C286.743 173.483 286.697 173.455 286.647 173.437C286.597 173.42 286.544 173.414 286.491 173.42C286.363 173.436 286.242 173.485 286.138 173.562C286.035 173.64 285.953 173.742 285.901 173.86C285.753 174.119 285.67 174.411 285.661 174.71C285.627 174.985 285.675 175.264 285.8 175.511C285.925 175.758 286.12 175.963 286.361 176.1C286.443 176.127 286.53 176.137 286.616 176.129C286.703 176.12 286.786 176.093 286.861 176.05C287.001 176 287.001 175.9 287.001 175.89Z" fill="#EB996E"/>
<path d="M287.33 172.47L288.11 173.28C291.51 170.04 298.16 161.91 297.79 162.39C296.238 161.817 294.569 161.639 292.93 161.87C290.4 162.3 285.61 163.56 285.68 166.53C285.829 168.6 286.39 170.62 287.33 172.47Z" fill="#263238"/>
<path d="M282.83 171.79C282.83 171.79 282.83 171.72 282.83 171.61C282.889 171.442 282.959 171.278 283.04 171.12C283.361 170.547 283.805 170.052 284.34 169.67C285.132 169.105 286.015 168.679 286.95 168.41C287.95 168.08 289.15 167.82 290.3 167.33C292.268 166.499 294.044 165.274 295.52 163.73C295.964 163.261 296.382 162.767 296.77 162.25L297.08 161.82C297.114 161.768 297.154 161.721 297.2 161.68L297.11 161.84C297.04 161.94 296.95 162.1 296.82 162.29C296.447 162.823 296.04 163.331 295.6 163.81C294.943 164.517 294.219 165.16 293.44 165.73C292.487 166.431 291.452 167.015 290.36 167.47C289.258 167.892 288.133 168.253 286.99 168.55C286.069 168.807 285.197 169.216 284.41 169.76C283.88 170.125 283.433 170.599 283.1 171.15C282.994 171.356 282.904 171.57 282.83 171.79Z" fill="#455A64"/>
<path d="M283.729 172.27C283.722 172.041 283.763 171.812 283.849 171.6C284.08 171.008 284.485 170.499 285.009 170.14C285.797 169.637 286.678 169.297 287.599 169.14C288.704 168.929 289.781 168.594 290.809 168.14C291.832 167.675 292.793 167.084 293.669 166.38C294.396 165.802 295.066 165.156 295.669 164.45C296.067 163.975 296.431 163.474 296.759 162.95C296.869 162.78 296.959 162.63 297.019 162.52C297.05 162.466 297.087 162.416 297.129 162.37C297.108 162.426 297.081 162.479 297.049 162.53L296.809 162.98C296.502 163.524 296.148 164.039 295.749 164.52C295.158 165.258 294.488 165.929 293.749 166.52C292.865 167.238 291.894 167.843 290.859 168.32C289.818 168.778 288.728 169.113 287.609 169.32C286.704 169.49 285.839 169.829 285.059 170.32C284.541 170.658 284.134 171.141 283.889 171.71C283.82 171.892 283.766 172.079 283.729 172.27Z" fill="#455A64"/>
<path d="M281.921 200.21C281.774 198.239 281.774 196.26 281.921 194.29C282.054 196.261 282.054 198.239 281.921 200.21Z" fill="#263238"/>
<path d="M303.141 199.79C303.115 199.457 303.115 199.123 303.141 198.79C303.201 197.956 303.171 197.118 303.051 196.29C302.895 195.464 302.654 194.656 302.331 193.88C302.179 193.559 302.059 193.224 301.971 192.88C302.166 193.172 302.33 193.484 302.461 193.81C302.831 194.581 303.097 195.398 303.251 196.24C303.37 197.086 303.37 197.944 303.251 198.79C303.256 199.127 303.219 199.462 303.141 199.79Z" fill="#263238"/>
<path d="M411.08 208.57H334.63C332.809 208.567 331.063 207.843 329.775 206.555C328.487 205.267 327.763 203.521 327.76 201.7V169.6L319.33 162.12H411.08C411.987 162.113 412.887 162.286 413.727 162.629C414.567 162.972 415.33 163.478 415.974 164.118C416.617 164.757 417.128 165.518 417.475 166.356C417.823 167.194 418.001 168.093 418 169V201.7C417.999 202.606 417.819 203.503 417.47 204.339C417.121 205.175 416.61 205.934 415.967 206.572C415.324 207.211 414.562 207.716 413.723 208.059C412.884 208.401 411.986 208.575 411.08 208.57Z" fill="#EBEBEB"/>
<path d="M405.839 213.77C403.127 214.028 400.402 214.114 397.679 214.03C394.96 214.114 392.238 214.027 389.529 213.77C392.238 213.513 394.96 213.426 397.679 213.51C400.402 213.426 403.127 213.512 405.839 213.77Z" fill="#E0E0E0"/>
<path d="M409.21 214.41C409.177 214.41 409.143 214.402 409.112 214.388C409.081 214.375 409.053 214.355 409.03 214.33L407.45 212.68C407.405 212.633 407.379 212.57 407.379 212.505C407.379 212.44 407.405 212.377 407.45 212.33C407.473 212.306 407.5 212.287 407.53 212.274C407.56 212.261 407.593 212.254 407.625 212.254C407.658 212.254 407.691 212.261 407.721 212.274C407.751 212.287 407.778 212.306 407.8 212.33L409.2 213.79L412.27 210.67C412.293 210.646 412.32 210.627 412.35 210.614C412.38 210.601 412.413 210.594 412.445 210.594C412.478 210.594 412.511 210.601 412.541 210.614C412.571 210.627 412.598 210.646 412.62 210.67C412.666 210.717 412.692 210.78 412.692 210.845C412.692 210.91 412.666 210.973 412.62 211.02L409.37 214.33C409.327 214.373 409.271 214.401 409.21 214.41Z" fill="#337ACC"/>
<path d="M411.46 214.36H411.17C411.104 214.36 411.04 214.334 410.993 214.287C410.946 214.24 410.92 214.176 410.92 214.11C410.927 214.044 410.957 213.983 411.004 213.938C411.052 213.892 411.114 213.864 411.18 213.86H411.36L414.53 210.63C414.553 210.606 414.581 210.587 414.612 210.573C414.643 210.56 414.676 210.553 414.71 210.553C414.744 210.553 414.777 210.56 414.808 210.573C414.839 210.587 414.867 210.606 414.89 210.63C414.936 210.677 414.961 210.74 414.961 210.805C414.961 210.87 414.936 210.933 414.89 210.98L411.64 214.28C411.618 214.306 411.59 214.326 411.559 214.34C411.528 214.354 411.494 214.361 411.46 214.36Z" fill="#337ACC"/>
<path d="M405.839 339.44C403.127 339.697 400.402 339.784 397.679 339.7C394.96 339.784 392.238 339.697 389.529 339.44C392.238 339.183 394.96 339.096 397.679 339.18C400.402 339.095 403.127 339.182 405.839 339.44Z" fill="#E0E0E0"/>
<path d="M409.21 340.08C409.171 340.084 409.132 340.079 409.095 340.065C409.059 340.051 409.026 340.029 409 340L407.42 338.35C407.392 338.328 407.369 338.3 407.353 338.268C407.337 338.236 407.328 338.201 407.326 338.165C407.325 338.129 407.331 338.094 407.345 338.061C407.358 338.027 407.379 337.998 407.405 337.973C407.431 337.948 407.461 337.93 407.495 337.918C407.529 337.907 407.565 337.902 407.601 337.906C407.636 337.909 407.671 337.921 407.702 337.938C407.733 337.956 407.759 337.981 407.78 338.01L409.18 339.47L412.25 336.35C412.272 336.326 412.3 336.307 412.33 336.294C412.36 336.281 412.392 336.274 412.425 336.274C412.458 336.274 412.49 336.281 412.52 336.294C412.55 336.307 412.578 336.326 412.6 336.35C412.646 336.397 412.671 336.459 412.671 336.525C412.671 336.59 412.646 336.653 412.6 336.7L409.39 340C409.341 340.047 409.277 340.075 409.21 340.08Z" fill="#337ACC"/>
<path d="M411.46 340H411.17C411.103 339.997 411.039 339.969 410.992 339.92C410.946 339.872 410.92 339.807 410.92 339.74C410.92 339.707 410.927 339.674 410.94 339.643C410.953 339.613 410.973 339.585 410.997 339.563C411.022 339.54 411.05 339.523 411.082 339.512C411.113 339.501 411.147 339.497 411.18 339.5H411.36L414.53 336.27C414.553 336.246 414.581 336.226 414.612 336.213C414.643 336.2 414.676 336.193 414.71 336.193C414.744 336.193 414.777 336.2 414.808 336.213C414.839 336.226 414.867 336.246 414.89 336.27C414.936 336.317 414.961 336.379 414.961 336.445C414.961 336.51 414.936 336.573 414.89 336.62L411.64 339.92C411.618 339.946 411.59 339.966 411.559 339.98C411.528 339.994 411.494 340.001 411.46 340Z" fill="#337ACC"/>
<path d="M410.101 171.31C410.101 171.45 393.411 171.57 372.821 171.57C352.231 171.57 335.551 171.45 335.551 171.31C335.551 171.17 352.231 171.05 372.821 171.05C393.411 171.05 410.101 171.16 410.101 171.31Z" fill="white"/>
<path d="M410.101 176.78C410.101 176.93 393.411 177.04 372.821 177.04C352.231 177.04 335.551 176.93 335.551 176.78C335.551 176.63 352.231 176.52 372.821 176.52C393.411 176.52 410.101 176.64 410.101 176.78Z" fill="white"/>
<path d="M410.101 182.26C410.101 182.4 393.411 182.52 372.821 182.52C352.231 182.52 335.551 182.4 335.551 182.26C335.551 182.12 352.231 182 372.821 182C393.411 182 410.101 182.12 410.101 182.26Z" fill="white"/>
<path d="M291.94 342.1C304.328 342.1 314.37 332.08 314.37 319.72C314.37 307.36 304.328 297.34 291.94 297.34C279.552 297.34 269.51 307.36 269.51 319.72C269.51 332.08 279.552 342.1 291.94 342.1Z" fill="#E0E0E0"/>
<path d="M281.461 325.32L287.341 324.82L301.681 327.24L303.371 338L303.131 339.25C299.902 341.076 296.271 342.076 292.562 342.161C288.854 342.246 285.181 341.415 281.871 339.74L281.461 325.29" fill="#455A64"/>
<path d="M298.609 327.06C300.031 326.854 301.482 327.052 302.797 327.63C304.113 328.208 305.239 329.143 306.049 330.33C307.023 331.689 307.914 333.105 308.719 334.57C306.379 337.11 304.479 339.04 301.239 340.16L298.609 327.06Z" fill="#455A64"/>
<path d="M281.46 325.32C281.46 325.32 277.58 325.79 276.08 329.1C274.58 332.41 274.23 333.45 274.23 333.45C276.23 335.86 278.79 338.72 281.92 339.79C281.92 339.79 282.63 331.46 282.72 329.1C282.83 326.52 282.93 325.24 281.46 325.32Z" fill="#455A64"/>
<path d="M285 304.12C285.976 302.866 287.222 301.849 288.645 301.142C290.068 300.436 291.631 300.059 293.22 300.04C294.585 300.032 295.941 300.273 297.22 300.75C298.564 301.076 299.753 301.861 300.58 302.97C301.598 304.281 302.265 305.83 302.52 307.47C302.754 309.152 302.835 310.853 302.76 312.55C302.68 314.253 302.129 315.901 301.17 317.31L296.86 318.06C294.483 318.245 292.093 318.117 289.75 317.68C287.382 317.225 285.289 315.852 283.93 313.86C282.2 311 282.92 306.67 285 304.12Z" fill="#263238"/>
<path d="M280.84 316.61C280.883 316.122 281.036 315.65 281.289 315.231C281.542 314.811 281.888 314.455 282.3 314.19C282.719 313.934 283.208 313.819 283.698 313.86C284.187 313.902 284.65 314.098 285.02 314.42L285.7 315.23C286.226 315.471 286.662 315.871 286.949 316.373C287.236 316.875 287.359 317.455 287.3 318.03C287.218 318.603 286.976 319.141 286.6 319.582C286.225 320.023 285.733 320.348 285.18 320.52C284.623 320.675 284.035 320.685 283.473 320.549C282.911 320.412 282.394 320.134 281.97 319.74C281.554 319.34 281.236 318.85 281.04 318.307C280.844 317.764 280.775 317.183 280.84 316.61Z" fill="#263238"/>
<path d="M281.69 319.51C281.53 319.252 281.45 318.953 281.46 318.65C281.605 317.925 281.951 317.256 282.46 316.72C282.94 316.15 283.528 315.681 284.19 315.34C284.69 315.07 285.04 314.97 285.03 314.93C284.712 314.959 284.403 315.051 284.12 315.2C283.419 315.52 282.798 315.991 282.3 316.58C282.023 316.902 281.788 317.258 281.6 317.64C281.436 317.949 281.34 318.29 281.32 318.64C281.317 318.88 281.383 319.116 281.51 319.32C281.6 319.47 281.69 319.52 281.69 319.51Z" fill="#455A64"/>
<path d="M296.841 326.66V322.66C296.841 322.66 300.351 322.27 301.331 317.78C301.791 314.803 301.972 311.79 301.871 308.78C301.871 306.05 299.521 302.33 296.141 302.32L294.641 302.15L288.891 304.43C288.491 304.45 288.113 304.619 287.831 304.904C287.55 305.189 287.386 305.57 287.371 305.97L287.201 325.17L289.831 328.86C290.313 329.512 290.986 329.996 291.757 330.246C292.528 330.495 293.358 330.497 294.13 330.251C294.902 330.005 295.577 329.524 296.062 328.874C296.546 328.225 296.815 327.44 296.831 326.63L296.841 326.66Z" fill="#FFBE9D"/>
<path d="M294.531 316.37C294.562 316.138 294.68 315.927 294.861 315.78C295.025 315.642 295.23 315.561 295.444 315.548C295.658 315.536 295.871 315.592 296.051 315.71C296.235 315.853 296.377 316.042 296.465 316.258C296.553 316.474 296.582 316.709 296.551 316.94C296.45 317.077 296.321 317.192 296.173 317.277C296.025 317.361 295.861 317.413 295.691 317.43H295.531C295.263 317.424 295.008 317.321 294.811 317.14C294.708 317.041 294.63 316.921 294.581 316.787C294.533 316.654 294.516 316.511 294.531 316.37Z" fill="#EB996E"/>
<path d="M299.76 312C299.741 312.142 299.672 312.272 299.564 312.367C299.456 312.461 299.318 312.513 299.175 312.513C299.032 312.513 298.893 312.461 298.786 312.367C298.678 312.272 298.608 312.142 298.59 312C298.598 311.847 298.665 311.703 298.777 311.598C298.888 311.494 299.037 311.437 299.19 311.44C299.264 311.438 299.338 311.452 299.407 311.48C299.476 311.507 299.539 311.548 299.592 311.6C299.645 311.652 299.688 311.715 299.716 311.783C299.745 311.852 299.76 311.925 299.76 312Z" fill="#263238"/>
<path d="M300.721 310.51C300.641 310.58 300.211 310.23 299.591 310.2C298.971 310.17 298.481 310.45 298.421 310.37C298.361 310.29 298.471 310.2 298.681 310.07C298.96 309.892 299.29 309.811 299.621 309.84C299.946 309.853 300.259 309.972 300.511 310.18C300.691 310.34 300.751 310.48 300.721 310.51Z" fill="#263238"/>
<path d="M296.77 315.25C297.098 315.172 297.433 315.128 297.77 315.12C297.93 315.12 298.09 315.12 298.12 314.98C298.142 314.815 298.114 314.648 298.04 314.5C297.91 314.11 297.77 313.7 297.63 313.26C297.25 312.204 296.953 311.121 296.74 310.02C297.209 311.04 297.593 312.097 297.89 313.18C298.03 313.62 298.15 314.03 298.28 314.43C298.365 314.629 298.382 314.85 298.33 315.06C298.303 315.115 298.264 315.164 298.215 315.202C298.167 315.24 298.11 315.267 298.05 315.28C297.961 315.294 297.87 315.294 297.78 315.28C297.444 315.316 297.104 315.305 296.77 315.25Z" fill="#263238"/>
<path d="M296.801 322.68C294.659 322.596 292.582 321.921 290.801 320.73C290.801 320.73 292.251 323.96 296.801 323.79V322.68Z" fill="#EB996E"/>
<path d="M294.9 315.58C295.01 315.58 294.97 316.26 295.53 316.78C296.09 317.3 296.81 317.26 296.81 317.35C296.81 317.44 296.64 317.47 296.34 317.47C295.938 317.452 295.555 317.293 295.26 317.02C294.975 316.763 294.802 316.403 294.78 316.02C294.77 315.74 294.86 315.58 294.9 315.58Z" fill="#263238"/>
<path d="M300.591 308.15C300.481 308.3 300.001 308.15 299.441 308.15C298.881 308.15 298.441 308.29 298.291 308.15C298.141 308.01 298.291 307.93 298.511 307.79C298.785 307.612 299.104 307.518 299.431 307.52C299.759 307.506 300.084 307.594 300.361 307.77C300.571 307.93 300.641 308.08 300.591 308.15Z" fill="#263238"/>
<path d="M292.881 311.92C292.878 312.072 292.935 312.219 293.04 312.329C293.145 312.44 293.289 312.505 293.441 312.51C293.515 312.518 293.59 312.511 293.661 312.49C293.732 312.468 293.798 312.433 293.855 312.385C293.912 312.338 293.959 312.279 293.992 312.213C294.026 312.146 294.046 312.074 294.051 312C294.054 311.847 293.997 311.698 293.892 311.586C293.788 311.475 293.644 311.408 293.491 311.4C293.417 311.393 293.342 311.401 293.27 311.424C293.199 311.446 293.133 311.483 293.076 311.531C293.02 311.58 292.973 311.639 292.939 311.706C292.906 311.773 292.886 311.845 292.881 311.92Z" fill="#263238"/>
<path d="M292.12 310.28C292.19 310.36 292.64 310.04 293.27 310.06C293.9 310.08 294.35 310.39 294.42 310.31C294.49 310.23 294.42 310.14 294.18 309.99C293.911 309.799 293.59 309.694 293.26 309.69C292.935 309.688 292.618 309.785 292.35 309.97C292.15 310.11 292.08 310.25 292.12 310.28Z" fill="#263238"/>
<path d="M291.761 308.94C291.881 309.08 292.371 308.94 292.951 308.94C293.531 308.94 294.021 309.05 294.141 308.94C294.261 308.83 294.141 308.73 293.901 308.59C293.61 308.419 293.278 308.33 292.941 308.33C292.603 308.33 292.272 308.419 291.981 308.59C291.771 308.72 291.701 308.87 291.761 308.94Z" fill="#263238"/>
<path d="M288.111 313.25C288.111 312.91 287.791 312.1 287.451 312.03C286.571 311.84 284.961 311.82 284.821 314.08C284.631 317.17 287.821 316.73 287.821 316.64C287.821 316.55 288.051 314.42 288.111 313.25Z" fill="#FFBE9D"/>
<path d="M287.001 315.46C287.001 315.46 286.951 315.46 286.851 315.53C286.722 315.579 286.579 315.579 286.451 315.53C286.258 315.392 286.105 315.206 286.008 314.99C285.912 314.774 285.874 314.535 285.901 314.3C285.911 314.035 285.979 313.776 286.101 313.54C286.136 313.446 286.194 313.361 286.269 313.293C286.344 313.226 286.433 313.176 286.531 313.15C286.593 313.138 286.657 313.147 286.713 313.176C286.77 313.205 286.815 313.252 286.841 313.31C286.849 313.363 286.849 313.417 286.841 313.47C286.841 313.47 286.911 313.42 286.891 313.29C286.876 313.213 286.837 313.143 286.781 313.09C286.741 313.056 286.694 313.031 286.645 313.016C286.595 313 286.542 312.995 286.491 313C286.362 313.014 286.24 313.063 286.136 313.14C286.032 313.217 285.951 313.321 285.901 313.44C285.751 313.699 285.669 313.991 285.661 314.29C285.627 314.563 285.676 314.841 285.801 315.086C285.925 315.332 286.12 315.535 286.361 315.67C286.438 315.708 286.524 315.728 286.611 315.728C286.697 315.728 286.783 315.708 286.861 315.67C287.001 315.53 287.001 315.46 287.001 315.46Z" fill="#EB996E"/>
<path d="M287.33 312L288.11 312.82C291.51 309.57 298.16 301.44 297.79 301.93C296.24 301.35 294.569 301.167 292.93 301.4C290.4 301.83 285.61 303.09 285.68 306.07C285.83 308.137 286.391 310.153 287.33 312Z" fill="#263238"/>
<path d="M282.83 311.35C282.83 311.35 282.83 311.29 282.83 311.17C282.891 311.006 282.961 310.846 283.04 310.69C283.363 310.115 283.807 309.617 284.34 309.23C285.15 308.67 286.049 308.254 287 308C288 307.66 289.2 307.4 290.35 306.91C291.433 306.46 292.46 305.886 293.41 305.2C294.186 304.64 294.909 304.011 295.57 303.32C296.13 302.72 296.57 302.2 296.82 301.84C296.94 301.66 297.05 301.52 297.13 301.41C297.21 301.3 297.24 301.26 297.25 301.27L297.16 301.43L296.87 301.87C296.502 302.406 296.094 302.915 295.65 303.39C294.993 304.1 294.27 304.747 293.49 305.32C292.53 306 291.493 306.564 290.4 307C289.24 307.49 288.06 307.75 287.03 308.08C286.109 308.334 285.238 308.739 284.45 309.28C283.919 309.648 283.473 310.126 283.14 310.68C283.023 310.897 282.92 311.12 282.83 311.35Z" fill="#455A64"/>
<path d="M283.729 311.84C283.722 311.607 283.763 311.376 283.849 311.16C284.078 310.569 284.483 310.063 285.009 309.71C285.797 309.207 286.678 308.867 287.599 308.71C288.703 308.495 289.779 308.159 290.809 307.71C291.832 307.245 292.793 306.654 293.669 305.95C294.874 304.986 295.908 303.826 296.729 302.52C296.839 302.34 296.929 302.2 296.989 302.08C297.022 302.03 297.059 301.983 297.099 301.94C297.078 301.996 297.051 302.049 297.019 302.1L296.779 302.55C296.472 303.094 296.118 303.609 295.719 304.09C295.128 304.828 294.458 305.499 293.719 306.09C292.837 306.808 291.866 307.41 290.829 307.88C289.786 308.333 288.696 308.668 287.579 308.88C286.671 309.04 285.804 309.38 285.029 309.88C284.505 310.211 284.096 310.697 283.859 311.27C283.798 311.455 283.755 311.646 283.729 311.84Z" fill="#455A64"/>
<path d="M281.921 339.77C281.774 337.803 281.774 335.827 281.921 333.86C282.054 335.828 282.054 337.802 281.921 339.77Z" fill="#263238"/>
<path d="M303.141 339.36C303.112 339.01 303.112 338.659 303.141 338.31C303.201 337.472 303.171 336.631 303.051 335.8C302.894 334.977 302.652 334.173 302.331 333.4C302.181 333.078 302.061 332.743 301.971 332.4C302.166 332.692 302.33 333.004 302.461 333.33C302.832 334.101 303.098 334.918 303.251 335.76C303.37 336.606 303.37 337.464 303.251 338.31C303.259 338.663 303.222 339.016 303.141 339.36Z" fill="#263238"/>
<path d="M411.08 332.88H334.63C332.807 332.877 331.06 332.151 329.772 330.861C328.484 329.571 327.76 327.823 327.76 326V309.16L319.33 301.68H411.08C412.901 301.683 414.647 302.407 415.935 303.695C417.223 304.983 417.947 306.729 417.95 308.55V326C417.95 327.823 417.227 329.571 415.939 330.861C414.65 332.151 412.903 332.877 411.08 332.88Z" fill="#EBEBEB"/>
<path d="M410.101 310.87C410.101 311.02 393.411 311.13 372.821 311.13C352.231 311.13 335.551 311.02 335.551 310.87C335.551 310.72 352.231 310.61 372.821 310.61C393.411 310.61 410.101 310.73 410.101 310.87Z" fill="white"/>
<path d="M410.101 316.35C410.101 316.49 393.411 316.61 372.821 316.61C352.231 316.61 335.551 316.49 335.551 316.35C335.551 316.21 352.231 316.09 372.821 316.09C393.411 316.09 410.101 316.21 410.101 316.35Z" fill="white"/>
<path d="M410.101 321.83C410.101 321.97 393.411 322.09 372.821 322.09C352.231 322.09 335.551 321.97 335.551 321.83C335.551 321.69 352.231 321.57 372.821 321.57C393.411 321.57 410.101 321.68 410.101 321.83Z" fill="white"/>
<path d="M410.101 187.74C410.101 187.88 393.411 188 372.821 188C352.231 188 335.551 187.88 335.551 187.74C335.551 187.6 352.231 187.48 372.821 187.48C393.411 187.48 410.101 187.59 410.101 187.74Z" fill="white"/>
<path d="M410.101 193.21C410.101 193.36 393.411 193.47 372.821 193.47C352.231 193.47 335.551 193.36 335.551 193.21C335.551 193.06 352.231 192.95 372.821 192.95C393.411 192.95 410.101 193.07 410.101 193.21Z" fill="white"/>
<path d="M410.101 199.79C410.101 199.94 393.411 200.05 372.821 200.05C352.231 200.05 335.551 199.94 335.551 199.79C335.551 199.64 352.231 199.53 372.821 199.53C393.411 199.53 410.101 199.65 410.101 199.79Z" fill="white"/>
<path d="M336 104.63C336.053 103.853 336.333 103.108 336.803 102.488C337.274 101.867 337.915 101.397 338.649 101.136C339.383 100.875 340.177 100.833 340.934 101.017C341.691 101.201 342.378 101.601 342.91 102.17L341.84 103.17C341.619 102.902 341.341 102.687 341.026 102.54C340.711 102.393 340.367 102.318 340.02 102.32C339.405 102.32 338.815 102.564 338.38 102.999C337.944 103.434 337.7 104.025 337.7 104.64C337.7 105.255 337.944 105.845 338.38 106.28C338.815 106.715 339.405 106.96 340.02 106.96C340.368 106.962 340.713 106.886 341.028 106.738C341.343 106.589 341.621 106.371 341.84 106.1L342.91 107.1C342.378 107.668 341.692 108.069 340.936 108.253C340.18 108.437 339.387 108.396 338.653 108.136C337.92 107.876 337.278 107.408 336.807 106.789C336.336 106.169 336.055 105.426 336 104.65V104.63Z" fill="#263238"/>
<path d="M349.56 105.06V108.25H348V105.31C348 104.41 347.58 104 346.87 104C346.16 104 345.54 104.48 345.54 105.5V108.25H343.92V100.58H345.54V103.27C345.774 103.044 346.052 102.869 346.356 102.754C346.661 102.639 346.985 102.586 347.31 102.6C347.627 102.587 347.943 102.644 348.237 102.766C348.53 102.888 348.793 103.072 349.007 103.307C349.221 103.541 349.382 103.819 349.477 104.122C349.573 104.425 349.601 104.745 349.56 105.06Z" fill="#263238"/>
<path d="M355.94 105.08V108.25H354.43V107.56C354.243 107.83 353.986 108.044 353.686 108.179C353.387 108.315 353.057 108.367 352.73 108.33C351.43 108.33 350.66 107.61 350.66 106.65C350.66 105.69 351.35 104.98 353.05 104.98H354.33C354.33 104.29 353.91 103.89 353.05 103.89C352.473 103.884 351.909 104.063 351.44 104.4L350.86 103.28C351.574 102.818 352.41 102.581 353.26 102.6C355 102.6 355.94 103.39 355.94 105.08ZM354.33 106.49V105.92H353.22C352.47 105.92 352.22 106.2 352.22 106.58C352.22 106.96 352.56 107.25 353.13 107.25C353.385 107.269 353.64 107.206 353.856 107.069C354.072 106.932 354.238 106.729 354.33 106.49Z" fill="#263238"/>
<path d="M361 108C360.606 108.248 360.145 108.37 359.68 108.35C359.405 108.388 359.126 108.363 358.862 108.277C358.599 108.191 358.358 108.046 358.159 107.853C357.959 107.661 357.807 107.425 357.711 107.165C357.616 106.904 357.582 106.626 357.61 106.35V104.06H356.75V102.82H357.61V101.46H359.22V102.82H360.61V104.06H359.22V106.33C359.208 106.425 359.217 106.522 359.247 106.613C359.277 106.705 359.327 106.788 359.392 106.858C359.458 106.928 359.539 106.982 359.629 107.017C359.718 107.052 359.814 107.067 359.91 107.06C360.145 107.068 360.375 106.994 360.56 106.85L361 108Z" fill="#263238"/>
<path d="M389.53 115.79C389.53 115.93 372.53 116.05 351.46 116.05C330.39 116.05 313.4 115.93 313.4 115.79C313.4 115.65 330.4 115.52 351.46 115.52C372.52 115.52 389.53 115.64 389.53 115.79Z" fill="#263238"/>
<path d="M423.26 104.63C424.238 104.63 425.03 103.837 425.03 102.86C425.03 101.882 424.238 101.09 423.26 101.09C422.283 101.09 421.49 101.882 421.49 102.86C421.49 103.837 422.283 104.63 423.26 104.63Z" fill="#263238"/>
<path d="M424.999 108C425.001 108.353 424.898 108.698 424.704 108.992C424.509 109.287 424.231 109.516 423.905 109.652C423.58 109.788 423.221 109.824 422.875 109.756C422.528 109.688 422.21 109.518 421.961 109.268C421.711 109.019 421.542 108.701 421.473 108.355C421.405 108.008 421.441 107.65 421.577 107.324C421.713 106.998 421.943 106.72 422.237 106.526C422.531 106.331 422.877 106.228 423.229 106.23C423.698 106.232 424.147 106.42 424.478 106.751C424.809 107.082 424.997 107.531 424.999 108Z" fill="#263238"/>
<path d="M424.999 113.19C425.001 113.543 424.898 113.888 424.704 114.183C424.509 114.477 424.231 114.707 423.905 114.843C423.58 114.978 423.221 115.015 422.875 114.946C422.528 114.878 422.21 114.708 421.961 114.459C421.711 114.209 421.542 113.891 421.473 113.545C421.405 113.199 421.441 112.84 421.577 112.514C421.713 112.188 421.943 111.911 422.237 111.716C422.531 111.521 422.877 111.418 423.229 111.42C423.699 111.42 424.149 111.606 424.481 111.938C424.813 112.27 424.999 112.721 424.999 113.19Z" fill="#263238"/>
<path d="M279.321 108.86C279.213 108.862 279.107 108.827 279.021 108.76L274.331 105.32C274.267 105.272 274.215 105.211 274.178 105.139C274.142 105.068 274.122 104.99 274.121 104.91C274.121 104.831 274.141 104.754 274.177 104.684C274.214 104.615 274.267 104.555 274.331 104.51L279.021 101.13C279.075 101.092 279.136 101.064 279.2 101.049C279.264 101.035 279.331 101.033 279.396 101.044C279.461 101.055 279.523 101.079 279.579 101.114C279.635 101.15 279.683 101.196 279.721 101.25C279.796 101.357 279.827 101.488 279.807 101.617C279.786 101.746 279.716 101.862 279.611 101.94L275.471 104.94L279.611 107.94C279.717 108.02 279.787 108.137 279.808 108.268C279.828 108.398 279.797 108.532 279.721 108.64C279.677 108.706 279.618 108.761 279.548 108.799C279.479 108.838 279.401 108.858 279.321 108.86Z" fill="#263238"/>
<path d="M401.709 277C414.097 277 424.139 266.98 424.139 254.62C424.139 242.26 414.097 232.24 401.709 232.24C389.322 232.24 379.279 242.26 379.279 254.62C379.279 266.98 389.322 277 401.709 277Z" fill="#E0E0E0"/>
<path d="M407.849 267.85H396.049C395.646 267.85 395.26 267.69 394.974 267.405C394.689 267.12 394.529 266.733 394.529 266.33C394.529 265.926 394.689 265.538 394.974 265.251C395.259 264.965 395.645 264.802 396.049 264.8H407.849C408.253 264.802 408.64 264.965 408.925 265.251C409.209 265.538 409.369 265.926 409.369 266.33C409.369 266.733 409.209 267.12 408.924 267.405C408.639 267.69 408.252 267.85 407.849 267.85Z" fill="#263238"/>
<path d="M402.62 240.07H401.58V245.31H402.62V240.07Z" fill="#263238"/>
<path d="M386.81 261.02C388.488 261.02 389.85 259.659 389.85 257.98C389.85 256.301 388.488 254.94 386.81 254.94C385.131 254.94 383.77 256.301 383.77 257.98C383.77 259.659 385.131 261.02 386.81 261.02Z" fill="#337ACC"/>
<path d="M417.55 260.82C419.229 260.82 420.59 259.459 420.59 257.78C420.59 256.101 419.229 254.74 417.55 254.74C415.871 254.74 414.51 256.101 414.51 257.78C414.51 259.459 415.871 260.82 417.55 260.82Z" fill="#337ACC"/>
<path d="M402.551 244.21C402.551 244.21 414.931 244.06 416.891 254.79C418.851 265.52 408.381 265.71 405.371 265.91C404.011 266 401.091 266.01 398.511 265.97C392.801 265.87 388.771 264.77 387.401 259.47C387.237 258.848 387.133 258.212 387.091 257.57C386.731 251.77 390.651 243.93 402.551 244.21Z" fill="#337ACC"/>
<path d="M393.57 260.54L411.57 260.82C412.475 260.833 413.349 260.487 413.999 259.857C414.65 259.227 415.024 258.365 415.04 257.46C415.05 256.554 414.701 255.682 414.07 255.033C413.438 254.385 412.575 254.013 411.67 254L393.67 253.72C393.221 253.712 392.775 253.793 392.358 253.957C391.94 254.122 391.559 254.367 391.237 254.679C390.915 254.992 390.657 255.364 390.479 255.776C390.301 256.188 390.206 256.631 390.2 257.08C390.193 257.528 390.275 257.974 390.441 258.391C390.607 258.808 390.853 259.188 391.166 259.509C391.479 259.831 391.853 260.087 392.265 260.264C392.678 260.441 393.121 260.535 393.57 260.54Z" fill="#263238"/>
<path d="M407.831 257.09C407.857 257.231 407.912 257.366 407.99 257.486C408.069 257.607 408.171 257.711 408.29 257.791C408.409 257.872 408.543 257.929 408.684 257.958C408.825 257.987 408.97 257.987 409.111 257.96C409.263 257.944 409.411 257.897 409.544 257.822C409.677 257.746 409.793 257.644 409.884 257.521C409.975 257.398 410.04 257.258 410.073 257.108C410.107 256.959 410.109 256.805 410.08 256.654C410.051 256.504 409.99 256.362 409.903 256.236C409.815 256.111 409.703 256.005 409.572 255.926C409.441 255.846 409.295 255.795 409.144 255.775C408.992 255.755 408.838 255.767 408.691 255.81C408.551 255.837 408.417 255.892 408.297 255.972C408.178 256.051 408.076 256.153 407.996 256.272C407.916 256.39 407.86 256.524 407.832 256.664C407.804 256.805 407.803 256.949 407.831 257.09Z" fill="white"/>
<path d="M395.259 256.89C395.275 257.042 395.322 257.19 395.397 257.323C395.473 257.456 395.575 257.571 395.698 257.663C395.821 257.754 395.962 257.818 396.111 257.852C396.26 257.886 396.415 257.888 396.565 257.859C396.715 257.83 396.857 257.769 396.983 257.682C397.108 257.594 397.214 257.482 397.294 257.351C397.373 257.22 397.425 257.074 397.445 256.923C397.464 256.771 397.453 256.617 397.409 256.47C397.332 256.207 397.16 255.982 396.925 255.84C396.691 255.697 396.412 255.647 396.143 255.7C395.874 255.752 395.634 255.904 395.471 256.124C395.307 256.344 395.232 256.617 395.259 256.89Z" fill="white"/>
<path d="M403.811 240C403.813 240.338 403.714 240.67 403.527 240.953C403.341 241.235 403.074 241.456 402.762 241.587C402.45 241.718 402.106 241.753 401.773 241.688C401.441 241.623 401.135 241.461 400.895 241.222C400.655 240.984 400.491 240.679 400.424 240.347C400.357 240.015 400.391 239.671 400.52 239.358C400.649 239.045 400.868 238.777 401.15 238.589C401.431 238.4 401.762 238.3 402.101 238.3C402.552 238.3 402.986 238.479 403.306 238.797C403.627 239.116 403.808 239.548 403.811 240Z" fill="#337ACC"/>
<path d="M404.68 256.59C404.68 256.59 404.75 256.67 404.79 256.85C404.822 257.105 404.798 257.364 404.72 257.61C404.611 257.99 404.404 258.334 404.12 258.61C403.774 258.956 403.318 259.172 402.83 259.22C402.343 259.26 401.856 259.133 401.45 258.86C401.129 258.642 400.865 258.351 400.68 258.01C400.562 257.78 400.494 257.528 400.48 257.27C400.48 257.09 400.48 256.99 400.54 256.99C400.6 256.99 400.64 257.37 400.97 257.84C401.163 258.1 401.404 258.321 401.68 258.49C402.015 258.689 402.403 258.779 402.79 258.75C403.163 258.702 403.512 258.542 403.79 258.29C404.042 258.081 404.244 257.818 404.38 257.52C404.64 257 404.6 256.59 404.68 256.59Z" fill="white"/>
<path d="M416.87 254.44C416.907 254.524 416.937 254.611 416.96 254.7C416.999 254.805 417.032 254.912 417.06 255.02C417.06 255.14 417.13 255.28 417.16 255.45C417.236 255.823 417.289 256.2 417.32 256.58C417.354 257.046 417.354 257.514 417.32 257.98C417.278 258.445 417.201 258.906 417.09 259.36C416.995 259.728 416.875 260.089 416.73 260.44C416.68 260.579 416.623 260.716 416.56 260.85C416.516 260.95 416.466 261.047 416.41 261.14L416.27 261.39C416.292 261.298 416.329 261.21 416.38 261.13L416.51 260.82C416.56 260.7 416.62 260.57 416.67 260.42C416.804 260.068 416.914 259.707 417 259.34C417.106 258.889 417.183 258.431 417.23 257.97C417.259 257.507 417.259 257.043 417.23 256.58C417.205 256.204 417.158 255.83 417.09 255.46C417.069 255.305 417.039 255.151 417 255C417 254.87 416.95 254.77 416.93 254.68C416.899 254.603 416.879 254.522 416.87 254.44Z" fill="#263238"/>
<path d="M387.541 254.5C387.498 254.586 387.464 254.677 387.441 254.77C387.441 254.85 387.381 254.96 387.341 255.08C387.301 255.2 387.271 255.35 387.241 255.51C387.164 255.883 387.114 256.26 387.091 256.64C387.056 257.106 387.056 257.574 387.091 258.04C387.131 258.505 387.208 258.967 387.321 259.42C387.413 259.792 387.534 260.156 387.681 260.51C387.731 260.66 387.801 260.79 387.851 260.91C387.901 261.03 387.961 261.13 388.001 261.21L388.141 261.45C388.114 261.359 388.077 261.272 388.031 261.19C388.031 261.11 387.951 261.01 387.901 260.89C387.851 260.77 387.791 260.64 387.741 260.49C387.606 260.134 387.496 259.77 387.411 259.4C387.303 258.949 387.226 258.491 387.181 258.03C387.151 257.57 387.151 257.11 387.181 256.65C387.206 256.271 387.252 255.894 387.321 255.52C387.342 255.378 387.372 255.238 387.411 255.1C387.411 254.97 387.461 254.86 387.481 254.78C387.501 254.7 387.541 254.5 387.541 254.5Z" fill="#263238"/>
<path d="M390.211 273.84C390.211 273.84 393.891 270.25 401.581 270.25C409.271 270.25 413.211 273.84 413.211 273.84C409.74 275.934 405.764 277.041 401.711 277.041C397.658 277.041 393.681 275.934 390.211 273.84Z" fill="#337ACC"/>
<path d="M279.001 277.44H355.441C356.343 277.441 357.237 277.264 358.071 276.92C358.906 276.575 359.663 276.069 360.302 275.431C360.94 274.792 361.446 274.035 361.791 273.201C362.135 272.366 362.312 271.472 362.311 270.57V248.39L370.741 240.91H279.001C278.099 240.91 277.205 241.088 276.372 241.433C275.538 241.778 274.781 242.284 274.143 242.922C273.505 243.56 272.999 244.317 272.654 245.151C272.309 245.984 272.131 246.878 272.131 247.78V270.57C272.13 271.472 272.306 272.366 272.651 273.201C272.996 274.035 273.502 274.792 274.14 275.431C274.778 276.069 275.536 276.575 276.37 276.92C277.204 277.264 278.098 277.441 279.001 277.44Z" fill="#EBEBEB"/>
<path d="M352 251.75C352 251.9 336.26 252.01 316.84 252.01C297.42 252.01 281.68 251.9 281.68 251.75C281.68 251.6 297.42 251.49 316.84 251.49C336.26 251.49 352 251.61 352 251.75Z" fill="white"/>
<path d="M352 257.69C352 257.84 336.26 257.95 316.84 257.95C297.42 257.95 281.68 257.84 281.68 257.69C281.68 257.54 297.42 257.43 316.84 257.43C336.26 257.43 352 257.55 352 257.69Z" fill="white"/>
<path d="M352 263.63C352 263.77 336.26 263.89 316.84 263.89C297.42 263.89 281.68 263.77 281.68 263.63C281.68 263.49 297.42 263.37 316.84 263.37C336.26 263.37 352 263.49 352 263.63Z" fill="white"/>
<path d="M352 269.57C352 269.71 336.26 269.83 316.84 269.83C297.42 269.83 281.68 269.71 281.68 269.57C281.68 269.43 297.42 269.31 316.84 269.31C336.26 269.31 352 269.42 352 269.57Z" fill="white"/>
<path d="M401.709 401.28C414.097 401.28 424.139 391.26 424.139 378.9C424.139 366.54 414.097 356.52 401.709 356.52C389.322 356.52 379.279 366.54 379.279 378.9C379.279 391.26 389.322 401.28 401.709 401.28Z" fill="#E0E0E0"/>
<path d="M407.849 392.13H396.049C395.849 392.13 395.65 392.09 395.465 392.013C395.28 391.936 395.112 391.823 394.971 391.681C394.83 391.539 394.718 391.37 394.642 391.185C394.566 390.999 394.528 390.8 394.529 390.6C394.529 390.197 394.689 389.81 394.975 389.525C395.26 389.24 395.646 389.08 396.049 389.08H407.849C408.252 389.08 408.639 389.24 408.924 389.525C409.209 389.81 409.369 390.197 409.369 390.6C409.371 390.8 409.332 390.999 409.257 391.185C409.181 391.37 409.069 391.539 408.928 391.681C408.786 391.823 408.618 391.936 408.433 392.013C408.248 392.09 408.05 392.13 407.849 392.13Z" fill="#263238"/>
<path d="M402.62 364.35H401.58V369.59H402.62V364.35Z" fill="#263238"/>
<path d="M386.81 385.3C388.488 385.3 389.85 383.939 389.85 382.26C389.85 380.581 388.488 379.22 386.81 379.22C385.131 379.22 383.77 380.581 383.77 382.26C383.77 383.939 385.131 385.3 386.81 385.3Z" fill="#337ACC"/>
<path d="M417.55 385.09C419.229 385.09 420.59 383.729 420.59 382.05C420.59 380.371 419.229 379.01 417.55 379.01C415.871 379.01 414.51 380.371 414.51 382.05C414.51 383.729 415.871 385.09 417.55 385.09Z" fill="#337ACC"/>
<path d="M402.551 368.49C402.551 368.49 414.931 368.34 416.891 379.06C418.851 389.78 408.381 389.99 405.371 390.19C404.011 390.28 401.091 390.29 398.511 390.25C392.801 390.15 388.771 389.04 387.401 383.75C387.237 383.128 387.133 382.492 387.091 381.85C386.731 376.05 390.651 368.2 402.551 368.49Z" fill="#337ACC"/>
<path d="M393.57 384.82L411.57 385.1C412.475 385.113 413.349 384.767 413.999 384.137C414.65 383.507 415.024 382.645 415.04 381.74C415.05 380.835 414.701 379.962 414.07 379.313C413.438 378.665 412.575 378.293 411.67 378.28L393.67 377.99C392.764 377.977 391.89 378.323 391.24 378.953C390.59 379.582 390.215 380.445 390.2 381.35C390.193 381.799 390.275 382.245 390.441 382.663C390.606 383.08 390.853 383.461 391.166 383.783C391.479 384.105 391.852 384.363 392.265 384.541C392.677 384.718 393.12 384.813 393.57 384.82Z" fill="#263238"/>
<path d="M407.831 381.37C407.855 381.512 407.907 381.649 407.984 381.771C408.061 381.893 408.162 381.999 408.28 382.083C408.398 382.166 408.531 382.226 408.672 382.258C408.813 382.29 408.959 382.294 409.101 382.27C409.244 382.245 409.38 382.193 409.502 382.116C409.625 382.039 409.731 381.939 409.814 381.821C409.898 381.703 409.957 381.57 409.989 381.429C410.021 381.288 410.025 381.142 410.001 381C409.986 380.848 409.939 380.7 409.863 380.567C409.788 380.434 409.685 380.318 409.562 380.227C409.439 380.136 409.299 380.071 409.15 380.037C409.001 380.004 408.846 380.001 408.696 380.031C408.546 380.06 408.403 380.12 408.278 380.208C408.152 380.295 408.046 380.408 407.967 380.539C407.887 380.669 407.836 380.815 407.816 380.967C407.796 381.119 407.808 381.273 407.851 381.42L407.831 381.37Z" fill="white"/>
<path d="M395.261 381.17C395.302 381.383 395.406 381.58 395.559 381.734C395.712 381.889 395.908 381.994 396.121 382.038C396.334 382.081 396.556 382.06 396.757 381.978C396.958 381.895 397.131 381.755 397.252 381.575C397.374 381.394 397.439 381.182 397.44 380.964C397.441 380.747 397.378 380.534 397.258 380.353C397.137 380.171 396.966 380.029 396.766 379.945C396.565 379.861 396.344 379.838 396.131 379.88C395.989 379.907 395.854 379.963 395.733 380.042C395.613 380.122 395.509 380.225 395.428 380.345C395.347 380.464 395.291 380.599 395.262 380.74C395.233 380.882 395.233 381.028 395.261 381.17Z" fill="white"/>
<path d="M403.811 364.24C403.811 364.578 403.71 364.909 403.522 365.19C403.335 365.471 403.067 365.69 402.755 365.82C402.443 365.949 402.099 365.983 401.767 365.917C401.435 365.851 401.131 365.688 400.891 365.449C400.652 365.21 400.489 364.905 400.423 364.573C400.357 364.242 400.391 363.898 400.521 363.585C400.65 363.273 400.869 363.006 401.151 362.818C401.432 362.63 401.762 362.53 402.101 362.53C402.554 362.53 402.989 362.71 403.31 363.031C403.63 363.351 403.811 363.786 403.811 364.24Z" fill="#337ACC"/>
<path d="M404.68 380.86C404.68 380.86 404.75 380.95 404.79 381.13C404.821 381.385 404.798 381.644 404.72 381.89C404.608 382.269 404.402 382.613 404.12 382.89C403.774 383.236 403.318 383.452 402.83 383.5C402.343 383.54 401.856 383.413 401.45 383.14C401.129 382.922 400.865 382.631 400.68 382.29C400.563 382.06 400.495 381.808 400.48 381.55C400.48 381.37 400.48 381.27 400.54 381.27C400.6 381.27 400.64 381.65 400.97 382.11C401.16 382.376 401.401 382.6 401.68 382.77C402.017 382.962 402.403 383.053 402.79 383.03C403.163 382.982 403.512 382.822 403.79 382.57C404.038 382.357 404.239 382.094 404.38 381.8C404.64 381.26 404.6 380.87 404.68 380.86Z" fill="white"/>
<path d="M416.87 378.71C416.87 378.71 416.87 378.81 416.96 378.98C417 379.084 417.033 379.191 417.06 379.3C417.06 379.42 417.13 379.56 417.16 379.72C417.235 380.093 417.288 380.471 417.32 380.85C417.354 381.316 417.354 381.784 417.32 382.25C417.28 382.715 417.203 383.177 417.09 383.63C416.997 384.002 416.876 384.366 416.73 384.72C416.68 384.856 416.623 384.99 416.56 385.12C416.518 385.224 416.468 385.324 416.41 385.42L416.27 385.66C416.296 385.569 416.333 385.482 416.38 385.4C416.38 385.32 416.46 385.22 416.51 385.1C416.56 384.98 416.62 384.85 416.67 384.7C416.805 384.345 416.916 383.981 417 383.61C417.107 383.162 417.184 382.708 417.23 382.25C417.259 381.787 417.259 381.323 417.23 380.86C417.205 380.484 417.158 380.11 417.09 379.74C417.068 379.595 417.038 379.451 417 379.31C417 379.18 416.95 379.08 416.93 378.99C416.895 378.9 416.875 378.806 416.87 378.71Z" fill="#263238"/>
<path d="M387.541 378.78C387.498 378.866 387.464 378.956 387.441 379.05C387.441 379.13 387.381 379.24 387.341 379.36C387.301 379.48 387.271 379.63 387.241 379.79C387.164 380.162 387.114 380.54 387.091 380.92C387.056 381.386 387.056 381.854 387.091 382.32C387.131 382.785 387.208 383.246 387.321 383.7C387.413 384.072 387.534 384.436 387.681 384.79C387.731 384.94 387.801 385.07 387.851 385.19C387.901 385.31 387.961 385.41 388.001 385.49L388.141 385.73C388.116 385.638 388.079 385.551 388.031 385.47C388.031 385.39 387.951 385.29 387.901 385.17C387.851 385.05 387.791 384.92 387.741 384.76C387.606 384.408 387.496 384.047 387.411 383.68C387.303 383.229 387.226 382.771 387.181 382.31C387.151 381.85 387.151 381.389 387.181 380.93C387.206 380.551 387.252 380.173 387.321 379.8C387.342 379.658 387.372 379.518 387.411 379.38C387.411 379.25 387.461 379.14 387.481 379.06C387.501 378.98 387.541 378.78 387.541 378.78Z" fill="#263238"/>
<path d="M390.211 398.12C390.211 398.12 393.891 394.53 401.581 394.53C409.271 394.53 413.211 398.12 413.211 398.12C409.74 400.214 405.764 401.32 401.711 401.32C397.658 401.32 393.681 400.214 390.211 398.12Z" fill="#337ACC"/>
<path d="M279.001 401.72H355.441C356.343 401.721 357.237 401.544 358.071 401.2C358.906 400.855 359.663 400.349 360.302 399.711C360.94 399.072 361.446 398.315 361.791 397.481C362.135 396.646 362.312 395.752 362.311 394.85V372.67L370.741 365.19H279.001C278.099 365.19 277.205 365.368 276.372 365.713C275.538 366.058 274.781 366.564 274.143 367.202C273.505 367.84 272.999 368.597 272.654 369.431C272.309 370.264 272.131 371.158 272.131 372.06V394.85C272.13 395.752 272.306 396.646 272.651 397.481C272.996 398.315 273.502 399.072 274.14 399.711C274.778 400.349 275.536 400.855 276.37 401.2C277.204 401.544 278.098 401.721 279.001 401.72Z" fill="#EBEBEB"/>
<path d="M279.001 436.41H355.441C356.344 436.41 357.238 436.232 358.072 435.886C358.906 435.54 359.664 435.033 360.302 434.394C360.94 433.755 361.446 432.997 361.791 432.162C362.135 431.327 362.312 430.433 362.311 429.53V422.18L370.741 414.7H279.001C278.099 414.7 277.205 414.878 276.372 415.223C275.538 415.568 274.781 416.074 274.143 416.712C273.505 417.35 272.999 418.107 272.654 418.941C272.309 419.774 272.131 420.668 272.131 421.57V429.57C272.139 431.387 272.866 433.126 274.154 434.408C275.441 435.69 277.184 436.41 279.001 436.41Z" fill="#EBEBEB"/>
<path d="M352 376C352 376.15 336.26 376.26 316.84 376.26C297.42 376.26 281.68 376.15 281.68 376C281.68 375.85 297.42 375.74 316.84 375.74C336.26 375.74 352 375.89 352 376Z" fill="white"/>
<path d="M352 382C352 382.14 336.26 382.26 316.84 382.26C297.42 382.26 281.68 382.14 281.68 382C281.68 381.86 297.42 381.74 316.84 381.74C336.26 381.74 352 381.83 352 382Z" fill="white"/>
<path d="M352 387.91C352 388.05 336.26 388.17 316.84 388.17C297.42 388.17 281.68 388.05 281.68 387.91C281.68 387.77 297.42 387.65 316.84 387.65C336.26 387.65 352 387.76 352 387.91Z" fill="white"/>
<path d="M352 393.85C352 393.99 336.26 394.11 316.84 394.11C297.42 394.11 281.68 393.99 281.68 393.85C281.68 393.71 297.42 393.59 316.84 393.59C336.26 393.59 352 393.7 352 393.85Z" fill="white"/>
<path d="M352.24 425.87C352.24 426.01 336.66 426.13 317.45 426.13C298.24 426.13 282.65 426.01 282.65 425.87C282.65 425.73 298.23 425.61 317.45 425.61C336.67 425.61 352.24 425.72 352.24 425.87Z" fill="white"/>
<path d="M96.4399 411.39C97.7868 411.715 99.0542 412.308 100.166 413.134C101.278 413.961 102.211 415.004 102.91 416.2C104.292 418.609 105.109 421.3 105.3 424.07C105.81 429.39 103.96 435.26 101.66 440.07C96.4699 437.17 94.0599 430.72 93.0399 427.37C91.4299 422.08 91.7299 411.53 96.4399 411.37" fill="#455A64"/>
<path d="M108.559 447.59C107.939 446.173 107.705 444.617 107.881 443.08C108.057 441.544 108.635 440.081 109.559 438.84C110.509 437.619 111.694 436.599 113.044 435.842C114.394 435.085 115.881 434.605 117.419 434.43C118.109 434.281 118.823 434.281 119.513 434.431C120.203 434.581 120.853 434.878 121.419 435.3C121.879 435.788 122.199 436.391 122.347 437.045C122.495 437.7 122.464 438.382 122.259 439.02C121.834 440.292 121.082 441.43 120.079 442.32C116.789 445.5 113.019 447.97 108.459 447.59" fill="#455A64"/>
<path d="M106.319 464.72C106.26 464.357 106.236 463.988 106.249 463.62C106.249 462.84 106.249 461.83 106.169 460.62C105.965 457.304 106.303 453.977 107.169 450.77C108.099 447.554 109.87 444.644 112.299 442.34C113.043 441.655 113.865 441.061 114.749 440.57C114.985 440.435 115.229 440.315 115.479 440.21C115.562 440.16 115.653 440.126 115.749 440.11C114.584 440.81 113.492 441.624 112.489 442.54C110.142 444.851 108.421 447.721 107.489 450.88C106.628 454.052 106.248 457.335 106.359 460.62C106.359 461.89 106.359 462.91 106.359 463.62C106.373 463.987 106.359 464.355 106.319 464.72Z" fill="#263238"/>
<path d="M96.9192 419.45C96.9832 419.595 97.0335 419.746 97.0693 419.9C97.1693 420.24 97.2893 420.68 97.4293 421.22C97.7393 422.37 98.1692 424.04 98.6692 426.11C99.6692 430.25 101.009 435.99 102.329 442.35C103.649 448.71 104.709 454.51 105.419 458.71C105.769 460.81 106.039 462.51 106.219 463.71C106.299 464.27 106.359 464.71 106.409 465.07C106.425 465.23 106.425 465.391 106.409 465.55C106.358 465.397 106.317 465.24 106.289 465.08C106.219 464.73 106.139 464.29 106.029 463.73C105.799 462.52 105.489 460.83 105.109 458.78C104.329 454.59 103.229 448.78 101.909 442.45C100.589 436.12 99.3093 430.35 98.3693 426.2C97.8993 424.2 97.5193 422.49 97.2493 421.28C97.1293 420.73 97.0293 420.28 96.9593 419.94C96.927 419.779 96.9135 419.615 96.9192 419.45Z" fill="#263238"/>
<path d="M101.66 452.36C100.457 449.33 98.5515 446.629 96.0999 444.48C93.6484 442.331 90.7212 440.796 87.5597 440C85.9497 439.61 83.9497 439.56 82.9697 440.9C81.9897 442.24 82.6797 444.14 83.5897 445.53C85.5352 448.388 88.2811 450.608 91.4832 451.912C94.6853 453.216 98.201 453.546 101.59 452.86" fill="#455A64"/>
<path d="M89.3188 444.73C89.6574 444.772 89.9919 444.843 90.3188 444.94C90.7146 445.033 91.1052 445.146 91.4888 445.28C91.9288 445.44 92.4888 445.58 92.9988 445.83C93.5088 446.08 94.1588 446.32 94.7688 446.66C95.4385 447 96.0864 447.38 96.7088 447.8C98.1426 448.751 99.4613 449.866 100.639 451.12C101.793 452.392 102.8 453.791 103.639 455.29C104.008 455.938 104.342 456.606 104.639 457.29C104.895 457.891 105.119 458.505 105.309 459.13C105.509 459.69 105.589 460.23 105.709 460.69C105.805 461.086 105.878 461.486 105.929 461.89C105.99 462.22 106.024 462.555 106.029 462.89C105.939 462.89 105.779 461.43 105.029 459.18C104.831 458.572 104.6 457.974 104.339 457.39C104.042 456.706 103.708 456.038 103.339 455.39C102.491 453.925 101.485 452.557 100.339 451.31C99.1768 450.083 97.8898 448.98 96.4988 448.02C95.8388 447.6 95.2188 447.19 94.5988 446.88C94.0386 446.562 93.461 446.274 92.8688 446.02C90.7388 445.14 89.2888 444.81 89.3188 444.73Z" fill="#263238"/>
<path d="M121.1 151.7L117.4 140.15C122.663 131.61 124.541 121.411 122.665 111.556C120.789 101.702 115.295 92.9062 107.263 86.8972C99.2304 80.8883 89.241 78.1011 79.2581 79.0837C69.2752 80.0662 60.0209 84.7473 53.3142 92.2069C46.6076 99.6665 42.9338 109.365 43.015 119.396C43.0962 129.426 46.9265 139.064 53.753 146.414C60.5795 153.764 69.9084 158.295 79.9059 159.116C89.9034 159.937 99.8463 156.988 107.78 150.85L121.1 151.7Z" fill="#FAFAFA"/>
<path d="M121.1 151.7H120.26L117.72 151.57L107.72 151.02C107.704 151.02 107.689 151.017 107.675 151.011C107.661 151.005 107.648 150.996 107.638 150.984C107.628 150.973 107.62 150.96 107.615 150.945C107.61 150.931 107.608 150.915 107.61 150.9C107.605 150.88 107.605 150.86 107.61 150.84L107.77 151C100.821 156.427 92.2763 159.412 83.4596 159.49C81.2328 159.478 79.0101 159.301 76.8096 158.96C66.585 157.36 57.3758 151.866 51.1096 143.63C47.6197 138.993 45.1614 133.664 43.8996 128C42.5283 121.977 42.5831 115.718 44.0596 109.72C44.2496 108.96 44.4496 108.19 44.6496 107.43C44.8496 106.67 45.1796 105.93 45.4396 105.18C45.6929 104.421 45.9867 103.677 46.3196 102.95C46.6596 102.23 47.0096 101.51 47.3196 100.78C47.6637 100.05 48.0579 99.3452 48.4996 98.67L49.7696 96.59L51.2296 94.59L51.9696 93.59C52.2196 93.27 52.5096 92.98 52.7796 92.67C57.104 87.6979 62.5899 83.8712 68.7496 81.53C74.6135 79.2956 80.9103 78.4303 87.1596 79C93.0317 79.5838 98.7029 81.4549 103.77 84.48C112.774 89.8276 119.341 98.4719 122.08 108.58C122.658 110.746 123.073 112.952 123.32 115.18C123.48 117.263 123.516 119.353 123.43 121.44C123.046 128.091 121.004 134.54 117.49 140.2V140.11C118.67 143.87 119.57 146.77 120.19 148.75C120.49 149.75 120.71 150.44 120.87 150.95L121.09 151.69C121.09 151.69 120.99 151.42 120.82 150.92L120.09 148.71C119.45 146.71 118.5 143.89 117.28 140.18C117.269 140.151 117.269 140.119 117.28 140.09C120.728 134.443 122.718 128.027 123.07 121.42C123.146 119.352 123.1 117.282 122.93 115.22C122.68 113.011 122.262 110.825 121.68 108.68C119.535 100.899 115.086 93.9482 108.918 88.742C102.75 83.5358 95.1506 80.3175 87.1196 79.51C80.949 78.9453 74.731 79.7969 68.9396 82C62.8735 84.3212 57.4715 88.0988 53.2096 93C52.9496 93.31 52.6596 93.59 52.4096 93.91L51.6796 94.91L50.2396 96.84L48.9996 98.9C48.5596 99.5727 48.1654 100.274 47.8196 101C47.4796 101.71 47.1396 102.43 46.8196 103.14C46.4933 103.857 46.2062 104.592 45.9596 105.34C45.6996 106.08 45.3896 106.81 45.1696 107.56C44.9496 108.31 44.7796 109.07 44.5896 109.82C43.1396 115.725 43.0779 121.887 44.4096 127.82C46.1423 135.612 50.1756 142.703 55.9865 148.175C61.7974 153.647 69.1181 157.248 76.9996 158.51C79.18 158.852 81.3825 159.036 83.5896 159.06C85.6497 159.051 87.7061 158.881 89.7396 158.55C96.2916 157.482 102.476 154.806 107.74 150.76C107.75 150.749 107.762 150.74 107.776 150.734C107.79 150.729 107.805 150.725 107.82 150.725C107.835 150.725 107.849 150.729 107.863 150.734C107.877 150.74 107.889 150.749 107.9 150.76C107.914 150.78 107.922 150.805 107.922 150.83C107.922 150.855 107.914 150.88 107.9 150.9L107.82 150.72L117.7 151.4L120.26 151.58L121.1 151.7Z" fill="#263238"/>
<path d="M71.9388 119.14C71.9388 119.945 71.7001 120.732 71.2529 121.401C70.8057 122.071 70.17 122.592 69.4264 122.9C68.6827 123.208 67.8643 123.289 67.0748 123.132C66.2853 122.975 65.5601 122.587 64.9909 122.018C64.4217 121.449 64.0341 120.724 63.877 119.934C63.72 119.145 63.8006 118.326 64.1086 117.583C64.4167 116.839 64.9383 116.203 65.6077 115.756C66.277 115.309 67.0639 115.07 67.8688 115.07C68.9475 115.073 69.9811 115.502 70.7438 116.265C71.5065 117.028 71.9362 118.061 71.9388 119.14Z" fill="#263238"/>
<path d="M88.2396 119.14C88.2396 119.945 88.0009 120.732 87.5537 121.401C87.1065 122.071 86.4708 122.592 85.7271 122.9C84.9834 123.208 84.1651 123.289 83.3756 123.132C82.5861 122.975 81.8609 122.587 81.2917 122.018C80.7225 121.449 80.3349 120.724 80.1778 119.934C80.0208 119.145 80.1014 118.326 80.4094 117.583C80.7175 116.839 81.2391 116.203 81.9084 115.756C82.5777 115.309 83.3646 115.07 84.1696 115.07C85.2482 115.073 86.2819 115.502 87.0446 116.265C87.8073 117.028 88.237 118.061 88.2396 119.14Z" fill="#263238"/>
<path d="M104.5 117.11C104.901 117.807 105.087 118.608 105.033 119.41C104.98 120.213 104.69 120.982 104.2 121.619C103.71 122.257 103.042 122.736 102.281 122.994C101.519 123.253 100.698 123.28 99.9206 123.072C99.1435 122.864 98.4455 122.431 97.9146 121.826C97.3838 121.222 97.0439 120.474 96.9379 119.677C96.8318 118.879 96.9645 118.069 97.319 117.346C97.6735 116.624 98.234 116.024 98.9298 115.62C99.3931 115.351 99.9049 115.176 100.436 115.106C100.967 115.035 101.507 115.07 102.024 115.209C102.542 115.347 103.027 115.586 103.451 115.912C103.876 116.239 104.233 116.646 104.5 117.11Z" fill="#263238"/>
<path d="M106.119 299L63.9988 294.64L46.1588 254.15L32.2988 257.76C32.2988 257.76 42.5388 300.55 53.9988 307.18C65.4588 313.81 104.609 315 104.609 315L106.119 299Z" fill="#337ACC"/>
<path d="M128.512 319.594C135.365 311.883 134.67 300.076 126.959 293.223C119.248 286.369 107.441 287.064 100.587 294.775C93.7336 302.487 94.4289 314.294 102.14 321.147C109.851 328.001 121.658 327.306 128.512 319.594Z" fill="#263238"/>
<path d="M114.55 325.88C110.221 325.88 106.026 324.379 102.68 321.633C99.3342 318.887 97.0438 315.066 96.1994 310.82C95.3549 306.575 96.0086 302.168 98.0492 298.35C100.09 294.533 103.391 291.541 107.39 289.884C111.389 288.228 115.839 288.009 119.981 289.266C124.123 290.522 127.702 293.176 130.107 296.776C132.512 300.375 133.594 304.696 133.17 309.004C132.745 313.312 130.841 317.339 127.78 320.4C126.046 322.143 123.985 323.525 121.714 324.465C119.443 325.406 117.008 325.887 114.55 325.88ZM114.55 288.52C110.233 288.516 106.048 290.008 102.708 292.744C99.3679 295.479 97.0796 299.287 96.233 303.521C95.3863 307.754 96.0336 312.15 98.0646 315.959C100.096 319.768 103.385 322.756 107.371 324.412C111.358 326.068 115.796 326.291 119.928 325.043C124.061 323.794 127.632 321.151 130.035 317.564C132.437 313.977 133.521 309.668 133.103 305.372C132.684 301.075 130.789 297.056 127.74 294C126.013 292.26 123.958 290.88 121.694 289.939C119.43 288.998 117.001 288.516 114.55 288.52Z" fill="#263238"/>
<path d="M60.2246 310.379C67.7483 308.573 72.3832 301.009 70.5769 293.485C68.7706 285.962 61.2072 281.327 53.6835 283.133C46.1597 284.939 41.5248 292.503 43.3311 300.026C45.1374 307.55 52.7009 312.185 60.2246 310.379Z" fill="#263238"/>
<path d="M46.3145 257.424C50.786 252.952 50.786 245.703 46.3145 241.231C41.843 236.76 34.5933 236.76 30.1218 241.231C25.6503 245.703 25.6503 252.952 30.1218 257.424C34.5933 261.895 41.843 261.895 46.3145 257.424Z" fill="#263238"/>
<path d="M56.0637 243.131L46.6357 251.092L43.2355 247.066L52.6635 239.104C53.16 238.685 53.8026 238.48 54.4501 238.535C55.0976 238.59 55.6969 238.899 56.1161 239.396L56.3484 239.671C56.5575 239.916 56.7161 240.201 56.815 240.508C56.9139 240.815 56.9512 241.138 56.9247 241.46C56.8983 241.781 56.8086 242.094 56.6608 242.381C56.5131 242.668 56.3101 242.923 56.0637 243.131Z" fill="#263238"/>
<path d="M44.0898 228.55V240.55C44.0898 240.643 44.053 240.732 43.9873 240.798C43.9217 240.863 43.8327 240.9 43.7399 240.9H39.1799C39.087 240.9 38.998 240.863 38.9324 240.798C38.8667 240.732 38.8298 240.643 38.8298 240.55V228.55C38.8298 227.9 39.088 227.277 39.5474 226.818C40.0069 226.358 40.6301 226.1 41.2798 226.1H41.6398C42.2896 226.1 42.9128 226.358 43.3723 226.818C43.8317 227.277 44.0898 227.9 44.0898 228.55Z" fill="#263238"/>
<path d="M35.5993 228.595L38.2191 240.306C38.2393 240.397 38.2228 240.492 38.1731 240.57C38.1234 240.648 38.0445 240.704 37.9539 240.724L33.5039 241.72C33.4133 241.74 33.3184 241.723 33.24 241.674C33.1617 241.624 33.1062 241.545 33.086 241.454L30.4662 229.744C30.3243 229.11 30.4402 228.445 30.7883 227.897C31.1364 227.348 31.6881 226.96 32.3222 226.818L32.6736 226.739C33.3077 226.598 33.9721 226.713 34.5208 227.062C35.0695 227.41 35.4575 227.961 35.5993 228.595Z" fill="#263238"/>
<path d="M26.4633 231.53L32.4633 241.923C32.5097 242.003 32.5223 242.098 32.4982 242.188C32.4742 242.278 32.4156 242.354 32.3352 242.401L28.3861 244.681C28.3057 244.727 28.2102 244.74 28.1205 244.716C28.0308 244.692 27.9544 244.633 27.908 244.553L21.908 234.16C21.5831 233.597 21.495 232.929 21.6632 232.301C21.8314 231.673 22.242 231.138 22.8048 230.813L23.1165 230.633C23.6792 230.309 24.348 230.221 24.9756 230.389C25.6033 230.557 26.1384 230.967 26.4633 231.53Z" fill="#263238"/>
<path d="M289.178 403.89L301.785 398.528L265.407 312.993L252.8 318.355L289.178 403.89Z" fill="#337ACC"/>
<path d="M267.213 321.167C273.882 313.295 272.907 301.508 265.035 294.839C257.163 288.171 245.376 289.146 238.707 297.018C232.039 304.889 233.014 316.676 240.886 323.345C248.757 330.014 260.545 329.038 267.213 321.167Z" fill="#263238"/>
<path d="M252.999 327.84C250.068 327.842 247.178 327.155 244.561 325.836C241.944 324.516 239.674 322.601 237.933 320.243C236.191 317.886 235.028 315.153 234.535 312.264C234.043 309.375 234.236 306.411 235.099 303.61C236.121 300.307 238.04 297.351 240.642 295.073C243.243 292.794 246.426 291.282 249.835 290.704C253.245 290.125 256.748 290.504 259.955 291.797C263.162 293.09 265.948 295.247 268.003 298.029C270.058 300.81 271.301 304.107 271.595 307.553C271.888 310.999 271.221 314.458 269.666 317.547C268.111 320.636 265.73 323.234 262.788 325.051C259.846 326.868 256.457 327.833 252.999 327.84ZM252.999 290.46C249.546 290.464 246.163 291.425 243.224 293.237C240.285 295.049 237.907 297.641 236.354 300.724C234.8 303.807 234.132 307.26 234.425 310.7C234.717 314.14 235.958 317.432 238.01 320.208C240.061 322.985 242.843 325.138 246.045 326.428C249.247 327.718 252.745 328.095 256.148 327.516C259.552 326.937 262.728 325.424 265.323 323.148C267.918 320.871 269.831 317.919 270.849 314.62C272.301 309.893 271.819 304.782 269.507 300.41C267.196 296.038 263.244 292.761 258.519 291.3C256.712 290.741 254.831 290.457 252.939 290.46H252.999Z" fill="#263238"/>
<path d="M290.783 364.944C292.855 357.489 288.491 349.766 281.036 347.694C273.581 345.622 265.858 349.986 263.786 357.441C261.715 364.896 266.079 372.619 273.534 374.691C280.989 376.763 288.712 372.399 290.783 364.944Z" fill="#263238"/>
<path d="M309.26 401.17C308.543 399.026 307.207 397.142 305.42 395.757C303.633 394.372 301.476 393.547 299.221 393.387C296.966 393.226 294.714 393.738 292.749 394.857C290.785 395.976 289.195 397.652 288.183 399.673C287.17 401.695 286.779 403.971 287.059 406.214C287.339 408.458 288.277 410.568 289.756 412.279C291.234 413.989 293.186 415.223 295.365 415.825C297.545 416.427 299.854 416.37 302 415.66C303.429 415.187 304.751 414.436 305.889 413.451C307.028 412.466 307.961 411.267 308.635 409.921C309.309 408.575 309.712 407.109 309.819 405.608C309.926 404.106 309.736 402.598 309.26 401.17Z" fill="#263238"/>
<path d="M283.433 416.331L289.845 405.811L294.345 408.553L287.933 419.074C287.595 419.628 287.05 420.026 286.419 420.179C285.788 420.333 285.121 420.229 284.566 419.891L284.259 419.703C283.983 419.537 283.742 419.317 283.551 419.057C283.36 418.797 283.222 418.502 283.146 418.189C283.069 417.875 283.055 417.55 283.104 417.231C283.154 416.912 283.265 416.606 283.433 416.331Z" fill="#263238"/>
<path d="M299.398 426.365L295.598 414.982C295.569 414.894 295.575 414.798 295.617 414.715C295.658 414.632 295.731 414.569 295.819 414.539L300.145 413.096C300.233 413.066 300.329 413.073 300.412 413.114C300.495 413.156 300.558 413.229 300.587 413.317L304.387 424.699C304.485 425.006 304.522 425.328 304.495 425.649C304.469 425.97 304.379 426.282 304.232 426.568C304.085 426.854 303.883 427.108 303.637 427.316C303.392 427.524 303.107 427.682 302.801 427.78L302.459 427.894C301.851 428.089 301.189 428.038 300.617 427.753C300.045 427.467 299.608 426.969 299.398 426.365Z" fill="#263238"/>
<path d="M307.701 420.964L301.461 410.644C301.437 410.604 301.421 410.56 301.414 410.515C301.407 410.469 301.409 410.423 301.42 410.378C301.431 410.333 301.451 410.291 301.478 410.253C301.506 410.216 301.54 410.185 301.58 410.161L305.501 407.79C305.541 407.766 305.585 407.75 305.63 407.743C305.676 407.736 305.722 407.738 305.767 407.749C305.812 407.76 305.854 407.78 305.892 407.807C305.929 407.835 305.96 407.869 305.984 407.909L312.224 418.229C312.562 418.787 312.664 419.458 312.508 420.092C312.352 420.726 311.95 421.272 311.391 421.61L311.082 421.797C310.523 422.135 309.853 422.237 309.219 422.081C308.585 421.924 308.038 421.523 307.701 420.964Z" fill="#263238"/>
<path d="M315.176 417.97L306.194 410.012C306.125 409.95 306.082 409.864 306.077 409.771C306.071 409.678 306.103 409.587 306.164 409.518L309.181 406.112C309.243 406.043 309.33 406 309.422 405.995C309.515 405.989 309.606 406.021 309.676 406.082L318.657 414.04C319.144 414.471 319.439 415.077 319.478 415.726C319.518 416.374 319.297 417.012 318.867 417.498L318.628 417.768C318.196 418.251 317.59 418.544 316.944 418.582C316.297 418.619 315.661 418.399 315.176 417.97Z" fill="#263238"/>
<path d="M109 287.74C109 287.74 110.35 418.88 183.94 421.44C257.53 424 260.62 288.68 260.62 287.74C260.62 287.74 251.93 268.19 184.81 268.95C117.69 269.71 109 287.74 109 287.74Z" fill="#337ACC"/>
<path d="M150.319 264.66H212.519C216.578 264.66 219.869 261.369 219.869 257.31V256.24C219.869 252.181 216.578 248.89 212.519 248.89H150.319C146.26 248.89 142.969 252.181 142.969 256.24V257.31C142.969 261.369 146.26 264.66 150.319 264.66Z" fill="#263238"/>
<path d="M178.739 148.05H184.109V120.9H178.739V148.05Z" fill="#263238"/>
<path d="M263.533 228.877C272.012 226.862 277.252 218.355 275.236 209.876C273.221 201.397 264.714 196.157 256.235 198.172C247.756 200.188 242.517 208.695 244.532 217.174C246.547 225.652 255.054 230.892 263.533 228.877Z" fill="#337ACC"/>
<path d="M104.085 227.852C112.584 225.924 117.912 217.472 115.984 208.972C114.056 200.473 105.603 195.146 97.1039 197.074C88.6048 199.002 83.2777 207.455 85.2055 215.954C87.1334 224.453 95.5861 229.78 104.085 227.852Z" fill="#337ACC"/>
<path d="M178.3 142.16C178.3 142.16 114.14 141.39 104 197C93.8597 252.61 148.1 253.61 163.71 254.66C170.78 255.14 185.92 255.19 199.28 254.95C228.86 254.44 249.76 248.72 256.87 221.28C257.716 218.063 258.249 214.771 258.46 211.45C260.33 181.33 240 140.68 178.3 142.16Z" fill="#337ACC"/>
<path d="M224.84 226.8L131.63 228.25C129.304 228.291 126.993 227.873 124.829 227.02C122.665 226.167 120.691 224.895 119.019 223.278C117.347 221.661 116.01 219.73 115.086 217.596C114.161 215.462 113.666 213.166 113.63 210.84C113.59 208.514 114.009 206.203 114.863 204.039C115.718 201.875 116.99 199.901 118.608 198.229C120.226 196.557 122.157 195.221 124.292 194.296C126.427 193.371 128.723 192.877 131.05 192.84L224.26 191.39C226.586 191.348 228.897 191.765 231.062 192.618C233.226 193.47 235.201 194.742 236.873 196.359C238.545 197.976 239.882 199.908 240.806 202.043C241.731 204.178 242.224 206.474 242.26 208.8C242.301 211.127 241.882 213.438 241.028 215.603C240.175 217.767 238.902 219.742 237.284 221.414C235.666 223.086 233.734 224.423 231.598 225.347C229.463 226.271 227.166 226.765 224.84 226.8Z" fill="#263238"/>
<path d="M150.999 208.91C150.783 210.012 150.244 211.025 149.451 211.821C148.659 212.617 147.648 213.16 146.547 213.382C145.446 213.604 144.304 213.494 143.265 213.066C142.226 212.639 141.337 211.913 140.711 210.981C140.085 210.048 139.749 208.951 139.746 207.828C139.743 206.705 140.074 205.606 140.695 204.67C141.317 203.735 142.202 203.004 143.239 202.572C144.275 202.139 145.417 202.024 146.519 202.24C147.252 202.384 147.948 202.67 148.57 203.083C149.191 203.496 149.725 204.027 150.141 204.647C150.557 205.266 150.847 205.962 150.994 206.693C151.142 207.425 151.143 208.178 150.999 208.91Z" fill="white"/>
<path d="M216.089 207.87C215.874 208.973 215.337 209.988 214.545 210.785C213.753 211.583 212.743 212.127 211.642 212.35C210.54 212.574 209.397 212.465 208.358 212.038C207.318 211.612 206.428 210.886 205.801 209.954C205.174 209.021 204.837 207.924 204.834 206.8C204.831 205.676 205.161 204.577 205.783 203.641C206.404 202.705 207.29 201.974 208.327 201.541C209.364 201.109 210.506 200.993 211.609 201.21C213.086 201.5 214.387 202.365 215.227 203.613C216.067 204.862 216.377 206.393 216.089 207.87Z" fill="white"/>
<path d="M206.72 339.82C206.354 344.824 204.513 349.608 201.429 353.566C198.346 357.524 194.157 360.478 189.394 362.056C184.631 363.634 179.508 363.764 174.671 362.43C169.834 361.095 165.501 358.357 162.221 354.56C158.94 350.764 156.859 346.08 156.24 341.101C155.622 336.121 156.494 331.07 158.746 326.587C160.998 322.103 164.528 318.387 168.892 315.91C173.255 313.433 178.255 312.306 183.26 312.67C189.97 313.161 196.211 316.297 200.61 321.388C205.009 326.48 207.207 333.109 206.72 339.82Z" fill="#263238"/>
<path d="M199.849 339.32C199.582 342.967 198.239 346.454 195.991 349.338C193.743 352.222 190.69 354.375 187.218 355.524C183.746 356.673 180.012 356.767 176.486 355.794C172.961 354.82 169.804 352.823 167.414 350.056C165.024 347.288 163.508 343.873 163.058 340.244C162.609 336.615 163.245 332.934 164.888 329.666C166.53 326.399 169.105 323.692 172.286 321.888C175.467 320.083 179.111 319.263 182.759 319.53C185.181 319.706 187.544 320.358 189.714 321.448C191.884 322.538 193.818 324.045 195.405 325.883C196.992 327.721 198.202 329.854 198.964 332.159C199.727 334.465 200.027 336.898 199.849 339.32Z" fill="white"/>
<path d="M190.94 342.68C190.799 341.67 190.742 340.65 190.77 339.63C190.72 337.72 190.68 334.99 190.68 331.63L190.88 332L181.37 326.45H181.9L172.3 331.84C172.04 332.28 172.65 331.25 172.59 331.36V332.78V334.21C172.59 335.15 172.59 336.09 172.54 337.01C172.54 338.85 172.47 340.63 172.44 342.35L172.18 341.89L181.58 347.63H181.16C184.09 346.05 186.51 344.79 188.16 343.93C189.048 343.425 189.974 342.99 190.93 342.63C190.184 343.238 189.38 343.77 188.53 344.22C186.91 345.22 184.53 346.63 181.53 348.36L181.32 348.48L181.11 348.36L171.59 342.81L171.33 342.66V342.34C171.33 340.62 171.35 338.84 171.39 337C171.39 336.08 171.39 335.15 171.39 334.2V332.78V331.4C171.33 331.51 171.94 330.49 171.68 330.92L181.31 325.58L181.59 325.43L181.85 325.59L191.24 331.33L191.45 331.46V331.7C191.34 335.16 191.23 337.94 191.13 339.83C191.156 340.784 191.092 341.738 190.94 342.68Z" fill="#337ACC"/>
<path d="M187.688 126.608C191.144 123.152 191.144 117.548 187.688 114.092C184.232 110.636 178.628 110.636 175.172 114.092C171.716 117.548 171.716 123.152 175.172 126.608C178.628 130.064 184.232 130.064 187.688 126.608Z" fill="#337ACC"/>
<path d="M167.289 206.29C167.709 206.34 167.499 208.29 168.739 210.96C169.442 212.493 170.465 213.857 171.739 214.96C173.233 216.275 175.093 217.101 177.069 217.33C179.056 217.458 181.036 216.984 182.749 215.97C184.199 215.127 185.454 213.985 186.429 212.62C188.129 210.25 188.279 208.26 188.699 208.29C188.869 208.29 189.039 208.79 189.039 209.73C189.001 211.069 188.659 212.383 188.039 213.57C187.107 215.365 185.73 216.891 184.039 218C181.949 219.473 179.402 220.154 176.856 219.922C174.309 219.689 171.928 218.558 170.139 216.73C168.679 215.334 167.604 213.584 167.019 211.65C166.602 210.36 166.493 208.99 166.699 207.65C166.869 206.72 167.129 206.26 167.289 206.29Z" fill="white"/>
<path d="M252.719 232.2C252.619 232.2 253.769 230.4 254.879 227.25C256.259 223.125 257.133 218.846 257.479 214.51C257.879 210.189 257.98 205.845 257.779 201.51C257.709 199.84 257.629 198.51 257.549 197.51C257.481 197.026 257.465 196.537 257.499 196.05C257.627 196.521 257.711 197.003 257.749 197.49C257.889 198.42 258.029 199.77 258.149 201.49C258.463 205.86 258.412 210.248 257.999 214.61C257.647 218.987 256.716 223.298 255.229 227.43C254.758 228.676 254.19 229.883 253.529 231.04C253.293 231.449 253.022 231.837 252.719 232.2Z" fill="#263238"/>
<path d="M104.119 195.14C104.063 195.626 103.959 196.105 103.809 196.57C103.679 197.02 103.539 197.57 103.409 198.23C103.279 198.89 103.079 199.61 102.959 200.44C102.609 202.368 102.375 204.314 102.259 206.27C102.125 208.663 102.158 211.062 102.359 213.45C102.583 215.834 102.97 218.2 103.519 220.53C103.979 222.437 104.553 224.313 105.239 226.15C105.509 226.94 105.819 227.63 106.069 228.25C106.319 228.87 106.559 229.39 106.759 229.81C106.987 230.242 107.175 230.694 107.319 231.16C107.035 230.764 106.787 230.342 106.579 229.9C106.297 229.4 106.04 228.886 105.809 228.36C105.529 227.76 105.189 227.07 104.899 226.28C104.157 224.448 103.542 222.567 103.059 220.65C102.474 218.297 102.066 215.904 101.839 213.49C101.636 211.078 101.616 208.655 101.779 206.24C101.919 204.267 102.193 202.306 102.599 200.37C102.749 199.54 102.959 198.81 103.129 198.16C103.299 197.51 103.459 196.96 103.609 196.51C103.742 196.04 103.913 195.582 104.119 195.14Z" fill="#263238"/>
<path d="M108.66 287.63L109.04 287.74L110.16 288.12L114.42 289.62L117.5 290.72C118.63 291.1 119.88 291.46 121.21 291.87C123.88 292.66 126.89 293.69 130.31 294.49L135.64 295.86C137.5 296.33 139.46 296.68 141.48 297.12C145.48 298.04 149.87 298.67 154.48 299.41C164.45 300.778 174.497 301.496 184.56 301.56C194.623 301.501 204.671 300.783 214.64 299.41C219.22 298.67 223.58 298.05 227.64 297.12C229.64 296.69 231.64 296.34 233.48 295.87L238.82 294.5C242.23 293.7 245.24 292.67 247.91 291.88C249.24 291.47 250.49 291.11 251.62 290.73L254.7 289.63L258.96 288.13L260.08 287.75C260.206 287.7 260.337 287.664 260.47 287.64L260.1 287.8L259 288.23L254.77 289.82L251.62 291C250.5 291.39 249.25 291.76 247.92 292.19C245.25 293.01 242.25 294.06 238.83 294.89L233.49 296.29C231.64 296.77 229.67 297.13 227.65 297.58C223.65 298.52 219.25 299.16 214.65 299.92C204.66 301.322 194.588 302.053 184.5 302.11C174.416 302.046 164.347 301.311 154.36 299.91C149.77 299.16 145.36 298.51 141.36 297.57C139.36 297.12 137.36 296.76 135.52 296.28L130.18 294.88C126.76 294.05 123.76 293 121.09 292.18C119.76 291.75 118.52 291.38 117.39 290.99L114.32 289.84L110.09 288.25L108.99 287.82C108.874 287.767 108.764 287.704 108.66 287.63Z" fill="#263238"/>
<g opacity="0.3">
<path d="M109 287.74C109 287.74 117.69 269.74 184.81 268.95C251.93 268.16 260.62 287.74 260.62 287.74C260.62 287.74 192.88 321.13 109 287.74Z" fill="black"/>
</g>
<path d="M170.17 146.32C170.093 146.327 170.016 146.327 169.94 146.32L169.27 146.39C168.67 146.45 167.79 146.47 166.66 146.6C163.471 146.909 160.307 147.434 157.19 148.17C141.064 151.863 126.841 161.314 117.19 174.75C112.527 181.207 108.996 188.409 106.75 196.05C106.4 197.13 106.21 197.99 106.04 198.56L105.85 199.22C105.832 199.296 105.805 199.37 105.77 199.44C105.756 199.364 105.756 199.286 105.77 199.21C105.77 199.03 105.85 198.81 105.91 198.54C106.05 197.96 106.2 197.09 106.52 195.99C107.354 192.883 108.424 189.845 109.72 186.9C113.994 177.115 120.501 168.467 128.72 161.65C136.973 154.884 146.696 150.144 157.11 147.81C160.246 147.097 163.432 146.626 166.64 146.4C167.78 146.3 168.64 146.31 169.26 146.28H169.94C170.1 146.3 170.17 146.31 170.17 146.32Z" fill="white"/>
<path d="M107.399 223.3C106.999 222.681 106.689 222.007 106.479 221.3C105.293 217.958 104.74 214.425 104.849 210.88C104.821 210.144 104.909 209.409 105.109 208.7C105.269 208.7 105.049 212.04 105.689 216.08C106.329 220.12 107.549 223.24 107.399 223.3Z" fill="white"/>
<path d="M90.5703 218.13C90.5703 218.13 90.3403 217.97 90.0303 217.59C89.5884 217.052 89.2093 216.465 88.9003 215.84C87.8324 213.773 87.4238 211.428 87.7296 209.122C88.0353 206.815 89.0407 204.658 90.6103 202.94C91.07 202.414 91.5903 201.944 92.1603 201.54C92.3561 201.375 92.5795 201.247 92.8203 201.16C92.8803 201.24 91.9803 201.85 90.8903 203.16C89.4597 204.873 88.5444 206.957 88.2506 209.17C87.9568 211.382 88.2965 213.633 89.2303 215.66C89.9303 217.25 90.6403 218.07 90.5703 218.13Z" fill="white"/>
<path d="M181.999 114.18C181.219 114.094 180.432 114.078 179.649 114.13C178.716 114.212 177.815 114.506 177.014 114.991C176.212 115.475 175.533 116.137 175.027 116.924C174.521 117.712 174.202 118.605 174.095 119.536C173.988 120.466 174.095 121.408 174.409 122.29C174.679 123.022 175.014 123.728 175.409 124.4C175.409 124.4 175.209 124.28 174.929 123.96C174.545 123.497 174.241 122.973 174.029 122.41C173.647 121.476 173.497 120.464 173.589 119.46C173.681 118.455 174.014 117.488 174.56 116.639C175.105 115.791 175.847 115.086 176.722 114.585C177.598 114.084 178.581 113.801 179.589 113.76C180.188 113.719 180.789 113.776 181.369 113.93C181.819 114 181.999 114.15 181.999 114.18Z" fill="white"/>
<path d="M269.159 206C269.049 206.12 267.499 204.63 265.159 203.51C262.819 202.39 260.689 202.06 260.709 201.9C262.339 201.859 263.951 202.253 265.379 203.04C266.882 203.669 268.188 204.691 269.159 206Z" fill="white"/>
<path d="M131.999 381.07C131.953 381.011 131.913 380.947 131.879 380.88L131.549 380.29C131.249 379.72 130.849 378.96 130.329 377.99C130.069 377.49 129.789 376.93 129.469 376.33L128.529 374.33C127.849 372.88 127.089 371.23 126.339 369.33C125.959 368.4 125.559 367.42 125.139 366.41C124.719 365.4 124.359 364.3 123.949 363.19C123.089 360.98 122.359 358.55 121.509 356.03C119.939 350.93 118.399 345.28 117.049 339.28C115.699 333.28 114.719 327.49 113.919 322.22C113.119 316.95 112.599 312.22 112.279 308.16C112.089 306.16 111.969 304.34 111.869 302.74C111.769 301.14 111.679 299.74 111.649 298.64C111.619 297.54 111.589 296.69 111.559 296.05V295.38C111.548 295.304 111.548 295.226 111.559 295.15C111.57 295.226 111.57 295.304 111.559 295.38L111.619 296.05C111.619 296.68 111.729 297.55 111.799 298.63C111.869 299.71 111.969 301.13 112.109 302.72C112.249 304.31 112.379 306.13 112.599 308.13C112.959 312.13 113.599 316.89 114.349 322.13C115.099 327.37 116.189 333.13 117.509 339.13C118.829 345.13 120.379 350.77 121.909 355.86C122.759 358.38 123.469 360.8 124.309 363.01C124.709 364.13 125.089 365.2 125.469 366.23L126.629 369.17C127.349 371.04 128.089 372.7 128.749 374.17L129.649 376.17C129.939 376.78 130.219 377.34 130.469 377.85L131.589 380.19L131.869 380.8C131.929 380.881 131.974 380.973 131.999 381.07Z" fill="white"/>
<path d="M92.8691 299.54C90.4293 299.632 87.9861 299.545 85.5591 299.28C83.1206 299.195 80.6913 298.937 78.2891 298.51C80.7288 298.418 83.172 298.505 85.5991 298.77C88.0375 298.855 90.467 299.112 92.8691 299.54Z" fill="white"/>
<path d="M55.2496 278.19C53.8313 276.124 52.5583 273.962 51.4396 271.72C50.1718 269.56 49.0558 267.315 48.0996 265C49.5136 267.07 50.7832 269.235 51.8996 271.48C53.1739 273.634 54.2934 275.877 55.2496 278.19Z" fill="white"/>
<path d="M167.499 412.6C167.106 412.593 166.714 412.546 166.329 412.46C165.271 412.272 164.226 412.018 163.199 411.7C161.674 411.236 160.184 410.664 158.739 409.99C156.98 409.142 155.288 408.159 153.679 407.05C152.089 405.914 150.591 404.653 149.199 403.28C148.072 402.151 147.03 400.941 146.079 399.66C145.428 398.805 144.837 397.906 144.309 396.97C144.093 396.641 143.916 396.289 143.779 395.92C143.859 395.87 144.699 397.32 146.369 399.44C147.351 400.673 148.41 401.842 149.539 402.94C152.307 405.629 155.483 407.864 158.949 409.56C160.365 410.244 161.821 410.842 163.309 411.35C165.869 412.21 167.519 412.5 167.499 412.6Z" fill="white"/>
<path d="M182.84 366.34C182.609 366.38 182.375 366.404 182.14 366.41C181.475 366.466 180.807 366.486 180.14 366.47C177.653 366.415 175.186 366.015 172.81 365.28C171.168 364.769 169.569 364.127 168.03 363.36C166.265 362.452 164.59 361.377 163.03 360.15C159.415 357.373 156.566 353.723 154.75 349.542C152.935 345.361 152.212 340.787 152.65 336.25C152.813 334.281 153.164 332.332 153.7 330.43C154.179 328.78 154.798 327.175 155.55 325.63C156.635 323.39 158.028 321.313 159.69 319.46C160.136 318.954 160.61 318.473 161.11 318.02C161.275 317.854 161.452 317.701 161.64 317.56C161.64 317.56 160.98 318.27 159.84 319.56C158.24 321.442 156.895 323.526 155.84 325.76C154.267 329.052 153.331 332.611 153.08 336.25C152.675 340.707 153.396 345.194 155.179 349.298C156.961 353.403 159.747 356.994 163.28 359.74C164.794 360.959 166.422 362.031 168.14 362.94C169.646 363.734 171.214 364.403 172.83 364.94C175.171 365.699 177.602 366.146 180.06 366.27C181.87 366.34 182.84 366.28 182.84 366.34Z" fill="white"/>
<path d="M61.7698 287.59C61.7698 287.67 60.9998 287.3 59.7698 287.01C58.1239 286.65 56.4178 286.667 54.7794 287.06C53.141 287.453 51.613 288.212 50.3098 289.28C49.3098 290.11 48.8298 290.77 48.7598 290.72C49.0342 290.059 49.4587 289.47 49.9998 289C51.2976 287.809 52.878 286.969 54.5911 286.56C56.3043 286.15 58.0937 286.185 59.7898 286.66C60.5126 286.814 61.1901 287.132 61.7698 287.59Z" fill="white"/>
<path d="M209.44 188.16C209.44 188.3 197.16 188.42 182.02 188.42C166.88 188.42 154.59 188.3 154.59 188.16C154.59 188.02 166.87 187.9 182.02 187.9C197.17 187.9 209.44 188 209.44 188.16Z" fill="white"/>
<path d="M162.64 250.69C162.49 250.732 162.335 250.756 162.18 250.76L160.84 250.88C160.26 250.93 159.55 250.97 158.72 250.99C157.89 251.01 156.95 251.05 155.91 250.99C153.82 250.99 151.34 250.84 148.59 250.55C145.614 250.204 142.659 249.693 139.74 249.02C136.827 248.321 133.956 247.46 131.14 246.44C128.845 245.6 126.595 244.642 124.4 243.57C123.4 243.13 122.63 242.67 121.9 242.28C121.17 241.89 120.55 241.54 120.05 241.28L118.9 240.58C118.763 240.505 118.636 240.414 118.52 240.31C118.52 240.31 118.68 240.31 118.95 240.49L120.15 241.1C120.66 241.38 121.29 241.71 122.03 242.1C122.77 242.49 123.61 242.89 124.56 243.31C126.44 244.19 128.73 245.13 131.31 246.06C136.917 248.07 142.734 249.439 148.65 250.14C151.37 250.46 153.84 250.64 155.91 250.69C156.91 250.75 157.91 250.69 158.72 250.69C159.53 250.69 160.25 250.69 160.83 250.69H162.17C162.325 250.664 162.484 250.664 162.64 250.69Z" fill="white"/>
<path d="M242.47 295.75C242.396 295.799 242.315 295.836 242.23 295.86L241.51 296.13L238.73 297.13C237.52 297.57 236.04 298.08 234.29 298.59C232.54 299.1 230.57 299.76 228.34 300.32L224.86 301.24C223.65 301.55 222.37 301.81 221.06 302.12C218.44 302.75 215.6 303.25 212.62 303.82C199.64 306.081 186.449 306.889 173.29 306.23C170.29 306.04 167.38 305.89 164.7 305.58C163.36 305.44 162.06 305.34 160.82 305.17L157.25 304.68C154.97 304.41 152.93 304 151.14 303.68C149.35 303.36 147.8 303.06 146.55 302.77L143.67 302.13L142.92 301.95C142.833 301.936 142.749 301.909 142.67 301.87C142.76 301.862 142.85 301.862 142.94 301.87L143.69 302L146.59 302.55C147.85 302.8 149.39 303.09 151.19 303.36C152.99 303.63 155.02 304.02 157.3 304.27L160.86 304.72C162.1 304.88 163.4 304.97 164.74 305.1C167.41 305.39 170.29 305.52 173.31 305.7C179.36 305.95 186.01 305.96 192.99 305.55C199.97 305.14 206.56 304.27 212.53 303.29C215.53 302.74 218.35 302.29 220.97 301.65C222.28 301.35 223.56 301.1 224.77 300.8L228.25 299.91C230.48 299.38 232.45 298.76 234.2 298.26C235.95 297.76 237.45 297.26 238.66 296.89L241.47 295.99L242.21 295.77L242.47 295.75Z" fill="white"/>
</svg>
