<svg viewBox="0 0 64 64" xml:space="preserve" xmlns="http://www.w3.org/2000/svg"><circle cx="32" cy="32" fill="#3dcfd3" r="32" class="fill-e0e0d1"></circle><path d="M49.865 16.135c-1.933-1.933-13.04 6.04-19.874 12.874-3.362 3.362-5.058 5.819-5.689 7.682-2.108-.205-4.403.571-5.914 2.082-.968.968-1.498 2.041-1.894 3.202C15.733 44.206 15 47 12 48.99c2.236 2.236 10.984 2.865 15.227-1.378a6.916 6.916 0 0 0 1.144-1.529 7.619 7.619 0 0 0 .925-4.38c1.864-.627 4.325-2.324 7.695-5.694 6.834-6.834 14.807-17.941 12.874-19.874z" fill="#231F20" opacity=".2" class="fill-231f20"></path><path d="M29.991 27.009c-6.834 6.834-6.807 9.941-4.874 11.874 1.933 1.933 5.04 1.96 11.874-4.874 6.834-6.834 14.807-17.941 12.874-19.874s-13.04 6.04-19.874 12.874z" fill="#E0995E" class="fill-e0995e"></path><path d="M12 46.99c2.236 2.237 10.984 2.865 15.227-1.378a6.916 6.916 0 0 0 1.144-1.529c-6.637-.198-10.145-2.408-11.877-4.108C15.733 42.206 15 45 12 46.99z" fill="#C75C5C" class="fill-c75c5c"></path><path d="M27.757 36.243c-2.441-2.441-6.928-1.91-9.369.53-.968.968-1.498 2.041-1.894 3.202 1.732 1.7 5.13 6.942 11.877 4.108 1.39-2.493 1.378-5.848-.614-7.84z" fill="#4F5D73" class="fill-4f5d73"></path><path d="M16.495 39.975s4.022-.764 5.938 2.059c1.917 2.823 5.938 2.049 5.938 2.049l-5.205 2.875-5.208-3.792-1.463-3.191z" fill="#C75C5C" class="fill-c75c5c"></path></svg>