<svg version="1.0" viewBox="0 0 91.8 92.6" xml:space="preserve" xmlns="http://www.w3.org/2000/svg"><path d="M46.4 3.6c-23.5 0-42.5 19-42.5 42.5s19 42.5 42.5 42.5 42.5-19 42.5-42.5c.1-23.4-19-42.5-42.5-42.5zM20.3 46.7c2.2 1.5 4.8 3.1 7.8 4.9 3.1 1.9 5.5 3.3 7.4 4.2.4.2.6.5.5 1.1-.1.5-.3 1-.7 1.6-.4.5-.8.9-1.3 1.1-.6.3-1.1.3-1.4 0-1.4-1.1-4.2-3-8.5-5.9-4.5-3-7.7-5-9.7-6.1-.7-.4-1.1-.9-1.1-1.4 0-.5.3-1 1.1-1.4 3.4-2.1 6.6-4.1 9.7-6.1 4.5-2.9 7.4-4.8 8.5-5.7.4-.4.9-.4 1.4-.2.5.2.9.6 1.3 1.1.4.5.6 1 .7 1.6.1.6-.1 1-.5 1.2-2.1 1.1-4.5 2.4-7.4 4.1-3.2 1.9-5.8 3.5-7.8 4.8-.3.2-.5.4-.5.6s.2.2.5.5zm58.3.9c-2 1.1-5.3 3.1-9.7 6.1-4.3 2.9-7.1 4.8-8.5 5.9-.4.3-.9.3-1.5 0-.5-.2-.9-.6-1.4-1.1-.4-.5-.6-1.1-.7-1.6-.1-.5.1-.9.6-1.1 1.8-1 4.3-2.4 7.3-4.2 3-1.8 5.6-3.5 7.8-4.9.3-.2.5-.4.5-.6s-.2-.4-.5-.6c-2-1.3-4.6-2.9-7.8-4.8-2.8-1.6-5.2-3-7.3-4.1-.4-.2-.6-.6-.6-1.2.1-.5.3-1 .7-1.6.4-.5.9-.9 1.4-1.1.5-.2 1-.2 1.5.2 1.1.9 3.9 2.8 8.5 5.7 3.3 2.1 6.6 4.2 9.7 6.1.7.4 1.1.9 1.1 1.4s-.3 1.1-1.1 1.5z" fill="#3dcfd3" class="fill-1e1e1e"></path></svg>