<svg viewBox="0 0 136 135.099" xml:space="preserve" xmlns="http://www.w3.org/2000/svg"><path d="M4.667 67.549c0-34.98 28.355-63.334 63.332-63.334 34.979 0 63.334 28.354 63.334 63.334 0 34.976-28.355 63.333-63.334 63.333-34.977 0-63.332-28.357-63.332-63.333z" fill="#468902" class="fill-284a9f"></path><path d="M112.966 22.947c24.733 24.734 24.735 64.833 0 89.568-24.732 24.732-64.834 24.732-89.568 0l89.568-89.568z" fill="#6da832" class="fill-24488e"></path><path d="M129.405 83.09 84.739 38.423l-9.075 9.075-19.331-2.664 1.997 19.998-9.407 9.407L67.926 93.24l.331 12.998L89.24 127.22c19.749-7.031 34.98-23.578 40.165-44.13z" fill="#8ab85c" class="fill-1e3f77"></path><path d="M92.617 50.709c-.263-.988-.798-2.04-1.193-2.961-4.738-11.384-15.088-15.464-23.445-15.464-11.188 0-23.511 7.5-25.156 22.966v3.159c0 .131.045 1.315.111 1.908.922 7.37 6.736 15.202 11.079 22.571 4.672 7.896 9.521 15.662 14.325 23.428 2.961-5.066 5.912-10.199 8.807-15.137.789-1.447 1.705-2.895 2.495-4.276.525-.921 1.531-1.843 1.991-2.698 4.672-8.554 12.192-17.176 12.192-25.665v-3.488c-.001-.92-1.14-4.145-1.206-4.343zM68.183 66.568c-3.289 0-6.888-1.645-8.665-6.186-.265-.723-.244-2.171-.244-2.304v-2.041c0-5.789 4.917-8.422 9.193-8.422 5.265 0 9.336 4.211 9.336 9.476 0 5.267-4.356 9.477-9.62 9.477z" fill="#FFFFFF" class="fill-ffffff"></path></svg>