<svg viewBox="0 0 400 400" xmlns="http://www.w3.org/2000/svg" xmlns:xlink="http://www.w3.org/1999/xlink"><defs><filter filterUnits="objectBoundingBox" height="200%" id="a" width="200%" x="-50%" y="-50%"><feOffset dy="4" in="SourceAlpha" result="shadowOffsetOuter1"></feOffset><feGaussianBlur in="shadowOffsetOuter1" result="shadowBlurOuter1" stdDeviation="2"></feGaussianBlur><feColorMatrix in="shadowBlurOuter1" values="0 0 0 0 0 0 0 0 0 0 0 0 0 0 0 0 0 0 0.5 0"></feColorMatrix></filter><filter filterUnits="objectBoundingBox" height="200%" id="c" width="200%" x="-50%" y="-50%"><feOffset dy="2" in="SourceAlpha" result="shadowOffsetOuter1"></feOffset><feGaussianBlur in="shadowOffsetOuter1" result="shadowBlurOuter1" stdDeviation="1"></feGaussianBlur><feColorMatrix in="shadowBlurOuter1" values="0 0 0 0 0 0 0 0 0 0 0 0 0 0 0 0 0 0 0.5 0"></feColorMatrix></filter><filter filterUnits="objectBoundingBox" height="200%" id="e" width="200%" x="-50%" y="-50%"><feOffset dy="2" in="SourceAlpha" result="shadowOffsetOuter1"></feOffset><feGaussianBlur in="shadowOffsetOuter1" result="shadowBlurOuter1" stdDeviation="2"></feGaussianBlur><feColorMatrix in="shadowBlurOuter1" values="0 0 0 0 0 0 0 0 0 0 0 0 0 0 0 0 0 0 0.5 0"></feColorMatrix></filter><circle cx="200" cy="255" id="f" r="10"></circle><rect height="141" id="d" rx="2" width="260" x="70" y="99"></rect><path d="M220 270h114.006a5.996 5.996 0 0 0 5.994-6V86c0-3.314-2.684-6-5.994-6H65.994A5.996 5.996 0 0 0 60 86v178c0 3.314 2.684 6 5.994 6H180v30h40v-30Zm-90 34c0-2.21 1.796-4 4.002-4h131.996a4.002 4.002 0 0 1 4.002 4v12c0 2.21-1.796 4-4.002 4H134.002a4.002 4.002 0 0 1-4.002-4v-12Z" id="b"></path></defs><g fill="none" fill-rule="evenodd"><path d="M200 400c110.457 0 200-89.543 200-200S310.457 0 200 0 0 89.543 0 200s89.543 200 200 200Z" fill="#3dcfd3" class="fill-aad8b0"></path><use fill="#000000" filter="url(#a)" xlink:href="#b" class="fill-000000"></use><use fill="#697F9B" xlink:href="#b" class="fill-697f9b"></use><use fill="#000000" filter="url(#c)" xlink:href="#d" class="fill-000000"></use><use fill="#DCF0E6" xlink:href="#d" class="fill-dcf0e6"></use><use fill="#000000" filter="url(#e)" xlink:href="#f" class="fill-000000"></use><use fill="#FBF0B8" xlink:href="#f" class="fill-fbf0b8"></use></g></svg>