<svg viewBox="0 0 512 512" xml:space="preserve" xmlns="http://www.w3.org/2000/svg" enable-background="new 0 0 512 512"><path d="M26.623 169.75h102.59v316.249H26.623zM408.65 173.458c-1.092-.341-2.123-.715-3.268-1.037a64.268 64.268 0 0 0-4.16-.8c-5.443-1.095-11.414-1.871-18.408-1.871-59.805 0-97.746 43.617-110.238 60.461V169.75h-102.59v316.249h102.588V313.501s77.525-108.273 110.24-28.754v201.252h102.563V272.588c0-47.784-32.66-87.602-76.727-99.13zM76.802 126.626c27.708 0 50.176-22.522 50.176-50.313 0-27.785-22.469-50.312-50.176-50.312-27.71 0-50.179 22.526-50.179 50.312 0 27.79 22.469 50.313 50.179 50.313z" fill="#ffffff" class="fill-0274b3"></path></svg>