<svg xmlns="http://www.w3.org/2000/svg" viewBox="0 0 100 100" xml:space="preserve" enable-background="new 0 0 100 100"><circle cx="50" cy="50" r="48.7" fill="#3dcfd3" class="fill-eeeeee"></circle><path d="M50 100C22.4 100 0 77.6 0 50S22.4 0 50 0s50 22.4 50 50-22.4 50-50 50zm0-97.4C23.9 2.6 2.6 23.9 2.6 50S23.8 97.4 50 97.4 97.4 76.2 97.4 50C97.3 23.9 76.1 2.7 50 2.6z" fill="#ffffff" class="fill-ffffff"></path><path d="M50 99C23 99 1 77 1 50S23 1 50 1s49 22 49 49-22 49-49 49zm0-97.3C23.3 1.7 1.7 23.3 1.7 50S23.3 98.3 50 98.3 98.3 76.7 98.3 50 76.7 1.7 50 1.7z" fill="#f2eded" class="fill-f2eded"></path><path d="M50 49.2 22.4 63.1l27.6 14 27.6-14z" fill="#005eb8" class="fill-005eb8"></path><path d="m50 41.8-27.6 14L50 69.7l27.6-13.9z" fill="#0f89db" class="fill-0f89db"></path><path d="M50 34.3 22.4 48.2 50 62.1l27.6-13.9z" fill="#95c8ec" class="fill-95c8ec"></path><path d="M50 27 22.4 40.9l27.6 14 27.6-14z" fill="#bdddf4" class="fill-bdddf4"></path><path d="M58.3 32.8c.1-.9.1-1.9 0-2.8l2.3-1.8-1-2.3-2.9.5c-.6-.8-1.2-1.4-2-1.9l.4-2.9-2.1-.8-1.7 2.4c-.9-.1-1.8-.1-2.8 0l-1.8-2.3-2.3 1 .5 2.9c-.7.6-1.4 1.2-1.9 2l-2.9-.4-.9 2.3 2.4 1.7c-.1.9-.1 1.9 0 2.8L39.3 35l1 2.3 2.9-.5c.6.8 1.2 1.4 2 1.9l-.4 2.9 2.3.9 1.7-2.4c.9.1 1.8.1 2.8 0l1.8 2.3 2.3-1-.7-2.9c.7-.6 1.4-1.2 1.9-2l2.9.4.9-2.3-2.4-1.8zm-5.8-.2c-.5 1.4-2 2-3.4 1.5-1.4-.6-2-2.1-1.5-3.5s2-2 3.4-1.5 2 2.1 1.5 3.5z" fill="#fbb040" class="fill-fbb040"></path><path d="M54.9 33.6c1.1-2.7-.2-5.8-3-6.9-2.7-1.1-5.8.2-6.9 3-1.1 2.7.2 5.8 3 6.9 2.7 1 5.8-.2 6.9-3 0 .1 0 0 0 0zm-2.4-1c-.5 1.4-2.1 2.1-3.5 1.6s-2.1-2.1-1.6-3.5v-.1c.5-1.4 2-2 3.4-1.5 1.5.5 2.2 2.1 1.7 3.5z" fill="#f5844e" class="fill-f5844e"></path></svg>