<svg viewBox="0 0 64 64" xml:space="preserve" xmlns="http://www.w3.org/2000/svg" fill-rule="evenodd" clip-rule="evenodd" stroke-linejoin="round" stroke-miterlimit="2"><path d="M0 0h64v64H0z" fill="none"></path><path d="M32 2.75C15.856 2.75 2.75 15.856 2.75 32S15.856 61.25 32 61.25 61.25 48.144 61.25 32 48.144 2.75 32 2.75Zm0 2.5c14.764 0 26.75 11.986 26.75 26.75S46.764 58.75 32 58.75 5.25 46.764 5.25 32 17.236 5.25 32 5.25Z" fill="#ffffff" class="fill-000000"></path><path d="M32 2.75c-3.455 0-6.708 2.153-9.298 5.951C19.116 13.959 16.75 22.435 16.75 32s2.366 18.041 5.952 23.299c2.59 3.798 5.843 5.951 9.298 5.951s6.708-2.153 9.298-5.951C44.884 50.041 47.25 41.565 47.25 32s-2.366-18.041-5.952-23.299C38.708 4.903 35.455 2.75 32 2.75Zm0 2.5c2.727 0 5.189 1.862 7.233 4.86C42.599 15.046 44.75 23.021 44.75 32c0 8.979-2.151 16.954-5.517 21.89-2.044 2.998-4.506 4.86-7.233 4.86-2.727 0-5.189-1.862-7.233-4.86C21.401 48.954 19.25 40.979 19.25 32c0-8.979 2.151-16.954 5.517-21.89C26.811 7.112 29.273 5.25 32 5.25Z" fill="#ffffff" class="fill-000000"></path><path d="M9.077 48.36a1.25 1.25 0 0 0-.109 1.664C14.324 56.857 22.653 61.25 32 61.25s17.676-4.393 23.032-11.226a1.25 1.25 0 0 0-.109-1.664C49.59 43.135 41.307 39.75 32 39.75c-9.307 0-17.59 3.385-22.923 8.61Zm2.584 1.008C16.592 44.996 23.883 42.25 32 42.25c8.117 0 15.408 2.746 20.339 7.118C47.431 55.108 40.137 58.75 32 58.75c-8.137 0-15.431-3.642-20.339-9.382ZM8.968 13.976a1.25 1.25 0 0 0 .109 1.664C14.41 20.865 22.693 24.25 32 24.25c9.307 0 17.59-3.385 22.923-8.61a1.25 1.25 0 0 0 .109-1.664C49.676 7.143 41.347 2.75 32 2.75S14.324 7.143 8.968 13.976Zm2.693.656C16.569 8.892 23.863 5.25 32 5.25c8.137 0 15.431 3.642 20.339 9.382C47.408 19.004 40.117 21.75 32 21.75c-8.117 0-15.408-2.746-20.339-7.118ZM4 33.25h56a1.25 1.25 0 0 0 0-2.5H4a1.25 1.25 0 0 0 0 2.5Z" fill="#ffffff" class="fill-000000"></path><path d="M33.25 60V4a1.25 1.25 0 0 0-2.5 0v56a1.25 1.25 0 0 0 2.5 0Z" fill="#ffffff" class="fill-000000"></path></svg>